<svg width="116" height="42" viewBox="0 0 116 42" fill="none" xmlns="http://www.w3.org/2000/svg">
<rect x="0.609863" y="0.5" width="114" height="41" rx="20.5" fill="#FFEEEB"/>
<rect x="0.609863" y="0.5" width="114" height="41" rx="20.5" stroke="#FFEEEB"/>
<g clip-path="url(#clip0_413_9187)">
<path d="M28.1099 9C21.4825 9 16.1099 14.3727 16.1099 21C16.1099 27.6273 21.4825 33 28.1099 33C34.7372 33 40.1099 27.6273 40.1099 21C40.1024 14.3758 34.7341 9.00742 28.1099 9ZM28.5382 12.4596L32.7099 10.792C33.1833 11.0062 33.6413 11.2531 34.0806 11.5309L34.0915 11.5377C34.5231 11.8111 34.9356 12.1137 35.3263 12.4432L35.3599 12.4725C35.5351 12.6217 35.7054 12.7762 35.871 12.9355C35.8919 12.9561 35.9138 12.9756 35.9347 12.9965C36.1083 13.166 36.2765 13.3408 36.4392 13.5207C36.4526 13.5359 36.4655 13.552 36.479 13.5672C36.6218 13.7271 36.7591 13.8928 36.8923 14.0611C36.9243 14.1012 36.9563 14.1412 36.9874 14.1813C37.1319 14.3684 37.2718 14.5588 37.4038 14.7553L36.5722 18.2904L32.4806 19.6545L28.5392 16.5008L28.5382 12.4596ZM19.2319 14.1836C19.263 14.1436 19.2946 14.1035 19.3267 14.0637C19.4583 13.8967 19.5944 13.7338 19.7351 13.5748C19.7503 13.558 19.7644 13.5408 19.7794 13.524C19.9411 13.3438 20.1085 13.1691 20.2819 13C20.3019 12.9805 20.3218 12.96 20.3427 12.942C20.5069 12.7836 20.6759 12.6301 20.8495 12.4816L20.8896 12.448C21.2767 12.1209 21.6853 11.8203 22.1126 11.548L22.1282 11.5381C22.5649 11.2609 23.02 11.0145 23.4907 10.8L27.6815 12.4596V16.4996L23.7399 19.6527L19.6483 18.2912L18.8167 14.7561C18.9499 14.56 19.0882 14.3699 19.2319 14.1836ZM18.7499 27.1381C18.6323 26.9588 18.5198 26.7762 18.4126 26.59L18.3866 26.5451C18.28 26.36 18.179 26.1717 18.0839 25.9805L18.0806 25.9744C17.8802 25.5721 17.7042 25.158 17.5538 24.7344V24.7305C17.4827 24.5305 17.4179 24.3256 17.3579 24.1195L17.3362 24.0436C17.2813 23.85 17.2315 23.6543 17.187 23.4564C17.1831 23.4371 17.1782 23.4187 17.1743 23.3996C17.0761 22.9527 17.0056 22.5004 16.963 22.0447L19.405 19.1145L23.4683 20.4688L24.6476 25.1855L22.7099 27.7637L18.7499 27.1381ZM30.7735 31.8771C30.5735 31.9268 30.3683 31.9695 30.163 32.008C30.1343 32.0137 30.105 32.0184 30.0763 32.0236C29.9015 32.0549 29.7247 32.0816 29.5476 32.1035C29.5003 32.1096 29.4534 32.116 29.4063 32.1217C29.2419 32.1408 29.0759 32.1553 28.9095 32.1672C28.8571 32.1707 28.8054 32.176 28.753 32.1793C28.5403 32.1924 28.3259 32.2 28.1099 32.2C27.912 32.2 27.7153 32.1947 27.5198 32.1844C27.4962 32.1844 27.4735 32.1805 27.4499 32.1787C27.2759 32.1688 27.1026 32.1557 26.9298 32.1389L26.9099 32.1352C26.5312 32.0941 26.1546 32.034 25.7819 31.9553L23.4159 28.2508L25.3231 25.7076H30.8966L32.8351 28.2676L30.7735 31.8771ZM39.0483 23.4C39.0442 23.4191 39.0396 23.4377 39.0354 23.4568C38.9907 23.6545 38.9409 23.8502 38.8862 24.0439L38.8647 24.1199C38.8046 24.326 38.7399 24.5301 38.6687 24.7309V24.7348C38.5183 25.1584 38.3425 25.5725 38.1419 25.9748L38.1386 25.9809C38.0429 26.1723 37.9421 26.3605 37.8358 26.5455L37.8099 26.5904C37.7032 26.7771 37.5909 26.9594 37.4731 27.1377L33.5267 27.76L31.5755 25.184L32.7542 20.4684L36.8175 19.1141L39.2595 22.0443C39.2171 22.5002 39.1466 22.9529 39.0483 23.4Z" fill="#FF5533"/>
</g>
<path d="M53.6616 27.24C52.8456 27.24 52.1096 27.1013 51.4536 26.824C50.8029 26.5467 50.2643 26.152 49.8376 25.64C49.4163 25.1227 49.1416 24.512 49.0136 23.808L50.4856 23.576C50.6723 24.3013 51.0589 24.8693 51.6456 25.28C52.2376 25.6853 52.9336 25.888 53.7336 25.888C54.2509 25.888 54.7176 25.808 55.1336 25.648C55.5549 25.4827 55.8883 25.248 56.1336 24.944C56.3789 24.64 56.5016 24.28 56.5016 23.864C56.5016 23.608 56.4563 23.3893 56.3656 23.208C56.2803 23.0213 56.1603 22.864 56.0056 22.736C55.8563 22.6027 55.6856 22.4907 55.4936 22.4C55.3016 22.3093 55.1016 22.2347 54.8936 22.176L51.9576 21.304C51.6376 21.208 51.3283 21.088 51.0296 20.944C50.7309 20.7947 50.4643 20.6107 50.2296 20.392C49.9949 20.168 49.8083 19.9013 49.6696 19.592C49.5309 19.2773 49.4616 18.9067 49.4616 18.48C49.4616 17.7973 49.6376 17.216 49.9896 16.736C50.3469 16.2507 50.8296 15.88 51.4376 15.624C52.0456 15.368 52.7309 15.2427 53.4936 15.248C54.2669 15.2533 54.9576 15.392 55.5656 15.664C56.1789 15.9307 56.6856 16.3147 57.0856 16.816C57.4909 17.3173 57.7629 17.9173 57.9016 18.616L56.3896 18.88C56.3096 18.4107 56.1309 18.008 55.8536 17.672C55.5816 17.3307 55.2403 17.0693 54.8296 16.888C54.4189 16.7013 53.9683 16.6053 53.4776 16.6C53.0083 16.5947 52.5843 16.6693 52.2056 16.824C51.8269 16.9787 51.5256 17.1947 51.3016 17.472C51.0776 17.744 50.9656 18.0587 50.9656 18.416C50.9656 18.768 51.0669 19.0533 51.2696 19.272C51.4723 19.4853 51.7203 19.656 52.0136 19.784C52.3123 19.9067 52.6029 20.008 52.8856 20.088L55.0776 20.72C55.3283 20.7893 55.6163 20.8853 55.9416 21.008C56.2723 21.1307 56.5923 21.304 56.9016 21.528C57.2109 21.7467 57.4669 22.04 57.6696 22.408C57.8723 22.7707 57.9736 23.2293 57.9736 23.784C57.9736 24.3387 57.8616 24.832 57.6376 25.264C57.4189 25.696 57.1123 26.0587 56.7176 26.352C56.3229 26.64 55.8643 26.8587 55.3416 27.008C54.8189 27.1627 54.2589 27.24 53.6616 27.24ZM63.6197 27.24C62.8091 27.24 62.1264 27.04 61.5717 26.64C61.0171 26.2347 60.5957 25.688 60.3077 25C60.0251 24.3067 59.8837 23.5307 59.8837 22.672C59.8837 21.8027 60.0251 21.024 60.3077 20.336C60.5957 19.648 61.0171 19.1067 61.5717 18.712C62.1317 18.3173 62.8171 18.12 63.6277 18.12C64.4277 18.12 65.1157 18.32 65.6917 18.72C66.2731 19.1147 66.7184 19.656 67.0277 20.344C67.3371 21.032 67.4917 21.808 67.4917 22.672C67.4917 23.536 67.3371 24.312 67.0277 25C66.7184 25.688 66.2731 26.2347 65.6917 26.64C65.1157 27.04 64.4251 27.24 63.6197 27.24ZM59.6437 30.84V18.36H60.9157V24.72H61.0757V30.84H59.6437ZM63.4437 25.936C64.0144 25.936 64.4864 25.792 64.8597 25.504C65.2331 25.216 65.5131 24.8267 65.6997 24.336C65.8864 23.84 65.9797 23.2853 65.9797 22.672C65.9797 22.064 65.8864 21.5147 65.6997 21.024C65.5184 20.5333 65.2357 20.144 64.8517 19.856C64.4731 19.568 63.9904 19.424 63.4037 19.424C62.8437 19.424 62.3797 19.5627 62.0117 19.84C61.6437 20.112 61.3691 20.4933 61.1877 20.984C61.0064 21.4693 60.9157 22.032 60.9157 22.672C60.9157 23.3013 61.0037 23.864 61.1797 24.36C61.3611 24.8507 61.6384 25.2373 62.0117 25.52C62.3851 25.7973 62.8624 25.936 63.4437 25.936ZM72.9255 27.24C72.0668 27.24 71.3255 27.0453 70.7015 26.656C70.0828 26.2667 69.6055 25.728 69.2695 25.04C68.9335 24.352 68.7655 23.5627 68.7655 22.672C68.7655 21.7653 68.9362 20.9707 69.2775 20.288C69.6188 19.6053 70.1015 19.0747 70.7255 18.696C71.3495 18.312 72.0828 18.12 72.9255 18.12C73.7895 18.12 74.5335 18.3147 75.1575 18.704C75.7815 19.088 76.2588 19.624 76.5895 20.312C76.9255 20.9947 77.0935 21.7813 77.0935 22.672C77.0935 23.5733 76.9255 24.368 76.5895 25.056C76.2535 25.7387 75.7735 26.2747 75.1495 26.664C74.5255 27.048 73.7842 27.24 72.9255 27.24ZM72.9255 25.888C73.8215 25.888 74.4882 25.5893 74.9255 24.992C75.3628 24.3947 75.5815 23.6213 75.5815 22.672C75.5815 21.696 75.3602 20.92 74.9175 20.344C74.4748 19.7627 73.8108 19.472 72.9255 19.472C72.3228 19.472 71.8268 19.608 71.4375 19.88C71.0482 20.152 70.7575 20.528 70.5655 21.008C70.3735 21.488 70.2775 22.0427 70.2775 22.672C70.2775 23.6427 70.5015 24.4213 70.9495 25.008C71.3975 25.5947 72.0562 25.888 72.9255 25.888ZM78.8549 27V18.36H80.1269V20.448L79.9189 20.176C80.0202 19.9093 80.1509 19.664 80.3109 19.44C80.4762 19.216 80.6602 19.032 80.8629 18.888C81.0869 18.7067 81.3402 18.568 81.6229 18.472C81.9055 18.376 82.1935 18.32 82.4869 18.304C82.7802 18.2827 83.0549 18.3013 83.3109 18.36V19.696C83.0122 19.616 82.6842 19.5947 82.3269 19.632C81.9695 19.6693 81.6389 19.8 81.3349 20.024C81.0575 20.2213 80.8415 20.4613 80.6869 20.744C80.5375 21.0267 80.4335 21.3333 80.3749 21.664C80.3162 21.9893 80.2869 22.3227 80.2869 22.664V27H78.8549ZM89.6476 27C89.1356 27.1013 88.6289 27.1413 88.1276 27.12C87.6316 27.104 87.1889 27.0053 86.7996 26.824C86.4103 26.6373 86.1143 26.3493 85.9116 25.96C85.7409 25.6187 85.6476 25.2747 85.6316 24.928C85.6209 24.576 85.6156 24.1787 85.6156 23.736V15.96H87.0396V23.672C87.0396 24.024 87.0423 24.3253 87.0476 24.576C87.0583 24.8267 87.1143 25.0427 87.2156 25.224C87.4076 25.5653 87.7116 25.7653 88.1276 25.824C88.5489 25.8827 89.0556 25.8667 89.6476 25.776V27ZM83.8636 19.536V18.36H89.6476V19.536H83.8636ZM94.6657 27.232C93.6364 27.232 92.7911 27.008 92.1297 26.56C91.4737 26.1067 91.0711 25.4747 90.9217 24.664L92.3777 24.432C92.4951 24.9013 92.7644 25.2747 93.1857 25.552C93.6071 25.824 94.1297 25.96 94.7537 25.96C95.3457 25.96 95.8097 25.8373 96.1457 25.592C96.4817 25.3467 96.6497 25.0133 96.6497 24.592C96.6497 24.3467 96.5937 24.1493 96.4817 24C96.3697 23.8453 96.1377 23.7013 95.7857 23.568C95.4391 23.4347 94.9137 23.2747 94.2097 23.088C93.4471 22.8853 92.8471 22.6747 92.4097 22.456C91.9724 22.2373 91.6604 21.984 91.4737 21.696C91.2871 21.408 91.1937 21.0587 91.1937 20.648C91.1937 20.1413 91.3324 19.6987 91.6097 19.32C91.8871 18.936 92.2737 18.64 92.7697 18.432C93.2711 18.224 93.8524 18.12 94.5137 18.12C95.1697 18.12 95.7564 18.224 96.2737 18.432C96.7911 18.64 97.2071 18.936 97.5217 19.32C97.8417 19.6987 98.0311 20.1413 98.0897 20.648L96.6337 20.912C96.5644 20.448 96.3404 20.0827 95.9617 19.816C95.5884 19.5493 95.1057 19.408 94.5137 19.392C93.9537 19.3707 93.4977 19.4693 93.1457 19.688C92.7991 19.9067 92.6257 20.2027 92.6257 20.576C92.6257 20.784 92.6897 20.9627 92.8177 21.112C92.9511 21.2613 93.1937 21.4027 93.5457 21.536C93.9031 21.6693 94.4204 21.8213 95.0977 21.992C95.8604 22.184 96.4604 22.3947 96.8977 22.624C97.3404 22.848 97.6551 23.1147 97.8417 23.424C98.0284 23.728 98.1217 24.104 98.1217 24.552C98.1217 25.384 97.8151 26.04 97.2017 26.52C96.5884 26.9947 95.7431 27.232 94.6657 27.232Z" fill="#FF5533"/>
<defs>
<clipPath id="clip0_413_9187">
<rect width="24" height="24" fill="white" transform="translate(16.1099 9)"/>
</clipPath>
</defs>
</svg>
