<svg width="123" height="42" viewBox="0 0 123 42" fill="none" xmlns="http://www.w3.org/2000/svg">
<rect x="0.689941" y="0.5" width="121" height="41" rx="20.5" fill="#FF5533"/>
<rect x="0.689941" y="0.5" width="121" height="41" rx="20.5" stroke="#FF5533"/>
<path d="M26.1602 14.577L26.7625 16.2495C27.4315 18.1058 28.8932 19.5675 30.7495 20.2365L32.422 20.8388C32.5727 20.8935 32.5727 21.1073 32.422 21.1613L30.7495 21.7635C28.8932 22.4325 27.4315 23.8943 26.7625 25.7505L26.1602 27.423C26.1055 27.5738 25.8917 27.5738 25.8377 27.423L25.2355 25.7505C24.5665 23.8943 23.1047 22.4325 21.2485 21.7635L19.576 21.1613C19.4252 21.1065 19.4252 20.8928 19.576 20.8388L21.2485 20.2365C23.1047 19.5675 24.5665 18.1058 25.2355 16.2495L25.8377 14.577C25.8917 14.4255 26.1055 14.4255 26.1602 14.577Z" fill="#FFEEEB"/>
<path d="M33.6888 10.5577L33.994 11.4044C34.333 12.3442 35.0732 13.0844 36.013 13.4234L36.8597 13.7287C36.9362 13.7564 36.9362 13.8644 36.8597 13.8922L36.013 14.1974C35.0732 14.5364 34.333 15.2767 33.994 16.2164L33.6888 17.0632C33.661 17.1397 33.553 17.1397 33.5253 17.0632L33.22 16.2164C32.881 15.2767 32.1407 14.5364 31.201 14.1974L30.3542 13.8922C30.2778 13.8644 30.2778 13.7564 30.3542 13.7287L31.201 13.4234C32.1407 13.0844 32.881 12.3442 33.22 11.4044L33.5253 10.5577C33.553 10.4804 33.6618 10.4804 33.6888 10.5577Z" fill="#FFEEEB"/>
<path d="M33.6888 24.9375L33.994 25.7843C34.333 26.724 35.0732 27.4643 36.013 27.8033L36.8597 28.1085C36.9362 28.1363 36.9362 28.2443 36.8597 28.272L36.013 28.5773C35.0732 28.9163 34.333 29.6565 33.994 30.5963L33.6888 31.443C33.661 31.5195 33.553 31.5195 33.5253 31.443L33.22 30.5963C32.881 29.6565 32.1407 28.9163 31.201 28.5773L30.3542 28.272C30.2778 28.2443 30.2778 28.1363 30.3542 28.1085L31.201 27.8033C32.1407 27.4643 32.881 26.724 33.22 25.7843L33.5253 24.9375C33.553 24.861 33.6618 24.861 33.6888 24.9375Z" fill="#FFEEEB"/>
<path d="M49.7631 27V15.48H56.8031V17.656H51.9391V20.152H55.8431V22.328H51.9391V27H49.7631ZM61.9011 27.24C61.0317 27.24 60.2691 27.0453 59.6131 26.656C58.9571 26.2667 58.4451 25.7307 58.0771 25.048C57.7144 24.36 57.5331 23.5707 57.5331 22.68C57.5331 21.7787 57.7197 20.9867 58.0931 20.304C58.4664 19.616 58.9811 19.08 59.6371 18.696C60.2931 18.312 61.0477 18.12 61.9011 18.12C62.7704 18.12 63.5331 18.3147 64.1891 18.704C64.8504 19.0933 65.3651 19.632 65.7331 20.32C66.1011 21.0027 66.2851 21.7893 66.2851 22.68C66.2851 23.576 66.0984 24.368 65.7251 25.056C65.3571 25.7387 64.8424 26.2747 64.1811 26.664C63.5251 27.048 62.7651 27.24 61.9011 27.24ZM61.9011 25.208C62.5997 25.208 63.1197 24.9733 63.4611 24.504C63.8077 24.0293 63.9811 23.4213 63.9811 22.68C63.9811 21.912 63.8051 21.2987 63.4531 20.84C63.1064 20.3813 62.5891 20.152 61.9011 20.152C61.4264 20.152 61.0371 20.2587 60.7331 20.472C60.4291 20.6853 60.2024 20.9813 60.0531 21.36C59.9091 21.7387 59.8371 22.1787 59.8371 22.68C59.8371 23.4533 60.0104 24.0693 60.3571 24.528C60.7091 24.9813 61.2237 25.208 61.9011 25.208ZM68.0443 27V18.36H69.9643V20.472L69.7563 20.2C69.8683 19.9013 70.0176 19.6293 70.2043 19.384C70.391 19.1387 70.6203 18.936 70.8923 18.776C71.1003 18.648 71.327 18.5493 71.5723 18.48C71.8177 18.4053 72.071 18.36 72.3323 18.344C72.5937 18.3227 72.855 18.328 73.1163 18.36V20.392C72.8763 20.3173 72.5963 20.2933 72.2763 20.32C71.9616 20.3413 71.6763 20.4133 71.4203 20.536C71.1643 20.6533 70.9483 20.8107 70.7723 21.008C70.5963 21.2 70.463 21.4293 70.3723 21.696C70.2816 21.9573 70.2363 22.2533 70.2363 22.584V27H68.0443ZM78.9452 30.84L80.6092 26.264L80.6412 27.608L76.8812 18.36H79.1372L81.6652 24.904H81.1532L83.6652 18.36H85.8412L80.9612 30.84H78.9452ZM90.5417 27.24C89.6724 27.24 88.9097 27.0453 88.2537 26.656C87.5977 26.2667 87.0857 25.7307 86.7177 25.048C86.355 24.36 86.1737 23.5707 86.1737 22.68C86.1737 21.7787 86.3604 20.9867 86.7337 20.304C87.107 19.616 87.6217 19.08 88.2777 18.696C88.9337 18.312 89.6884 18.12 90.5417 18.12C91.411 18.12 92.1737 18.3147 92.8297 18.704C93.491 19.0933 94.0057 19.632 94.3737 20.32C94.7417 21.0027 94.9257 21.7893 94.9257 22.68C94.9257 23.576 94.739 24.368 94.3657 25.056C93.9977 25.7387 93.483 26.2747 92.8217 26.664C92.1657 27.048 91.4057 27.24 90.5417 27.24ZM90.5417 25.208C91.2404 25.208 91.7604 24.9733 92.1017 24.504C92.4484 24.0293 92.6217 23.4213 92.6217 22.68C92.6217 21.912 92.4457 21.2987 92.0937 20.84C91.747 20.3813 91.2297 20.152 90.5417 20.152C90.067 20.152 89.6777 20.2587 89.3737 20.472C89.0697 20.6853 88.843 20.9813 88.6937 21.36C88.5497 21.7387 88.4777 22.1787 88.4777 22.68C88.4777 23.4533 88.651 24.0693 88.9977 24.528C89.3497 24.9813 89.8644 25.208 90.5417 25.208ZM99.9009 27.256C99.2236 27.256 98.6716 27.1413 98.2449 26.912C97.8183 26.6827 97.4849 26.392 97.2449 26.04C97.0103 25.688 96.8423 25.3227 96.7409 24.944C96.6396 24.56 96.5783 24.2107 96.5569 23.896C96.5356 23.5813 96.5249 23.352 96.5249 23.208V18.36H98.7329V22.44C98.7329 22.6373 98.7436 22.8907 98.7649 23.2C98.7863 23.504 98.8529 23.8107 98.9649 24.12C99.0769 24.4293 99.2583 24.688 99.5089 24.896C99.7649 25.104 100.125 25.208 100.589 25.208C100.776 25.208 100.976 25.1787 101.189 25.12C101.402 25.0613 101.602 24.9493 101.789 24.784C101.976 24.6133 102.128 24.3653 102.245 24.04C102.368 23.7093 102.429 23.2773 102.429 22.744L103.677 23.336C103.677 24.0187 103.538 24.6587 103.261 25.256C102.984 25.8533 102.565 26.336 102.005 26.704C101.45 27.072 100.749 27.256 99.9009 27.256ZM102.701 27V24.136H102.429V18.36H104.621V27H102.701Z" fill="#FFEEEB"/>
</svg>
