<svg width="102" height="42" viewBox="0 0 102 42" fill="none" xmlns="http://www.w3.org/2000/svg">
<rect x="0.609863" y="0.5" width="100" height="41" rx="20.5" fill="#FFEEEB"/>
<rect x="0.609863" y="0.5" width="100" height="41" rx="20.5" stroke="#FFEEEB"/>
<path d="M39.4067 26.7422H16.813C16.4247 26.7422 16.1099 27.057 16.1099 27.4453C16.1099 29.128 17.474 30.4922 19.1567 30.4922H37.063C38.7457 30.4922 40.1099 29.1281 40.1099 27.4453C40.1099 27.057 39.7951 26.7422 39.4067 26.7422Z" fill="#FF5533"/>
<path d="M29.9849 13.7572V13.3828C29.9849 12.3473 29.1454 11.5078 28.1099 11.5078C27.0743 11.5078 26.2349 12.3473 26.2349 13.3828V13.7572C26.85 13.6647 27.4763 13.6172 28.1099 13.6172C28.7435 13.6172 29.3697 13.6647 29.9849 13.7572Z" fill="#FF5533"/>
<path d="M35.8993 18.2498C33.8187 16.1693 31.0525 15.0234 28.1101 15.0234C25.1677 15.0234 22.4015 16.1693 20.3209 18.2498C18.4069 20.1638 17.2848 22.6582 17.1172 25.3359H39.1029C38.9353 22.6582 37.8132 20.1638 35.8993 18.2498Z" fill="#FF5533"/>
<path d="M49.3549 27V15.48H56.0749V16.904H50.7789V20.528H55.1149V21.952H50.7789V27H49.3549ZM60.9567 27.24C60.0981 27.24 59.3567 27.0453 58.7327 26.656C58.1141 26.2667 57.6367 25.728 57.3007 25.04C56.9647 24.352 56.7967 23.5627 56.7967 22.672C56.7967 21.7653 56.9674 20.9707 57.3087 20.288C57.6501 19.6053 58.1327 19.0747 58.7567 18.696C59.3807 18.312 60.1141 18.12 60.9567 18.12C61.8207 18.12 62.5647 18.3147 63.1887 18.704C63.8127 19.088 64.2901 19.624 64.6207 20.312C64.9567 20.9947 65.1247 21.7813 65.1247 22.672C65.1247 23.5733 64.9567 24.368 64.6207 25.056C64.2847 25.7387 63.8047 26.2747 63.1807 26.664C62.5567 27.048 61.8154 27.24 60.9567 27.24ZM60.9567 25.888C61.8527 25.888 62.5194 25.5893 62.9567 24.992C63.3941 24.3947 63.6127 23.6213 63.6127 22.672C63.6127 21.696 63.3914 20.92 62.9487 20.344C62.5061 19.7627 61.8421 19.472 60.9567 19.472C60.3541 19.472 59.8581 19.608 59.4687 19.88C59.0794 20.152 58.7887 20.528 58.5967 21.008C58.4047 21.488 58.3087 22.0427 58.3087 22.672C58.3087 23.6427 58.5327 24.4213 58.9807 25.008C59.4287 25.5947 60.0874 25.888 60.9567 25.888ZM70.5661 27.24C69.7074 27.24 68.9661 27.0453 68.3421 26.656C67.7234 26.2667 67.2461 25.728 66.9101 25.04C66.5741 24.352 66.4061 23.5627 66.4061 22.672C66.4061 21.7653 66.5768 20.9707 66.9181 20.288C67.2594 19.6053 67.7421 19.0747 68.3661 18.696C68.9901 18.312 69.7234 18.12 70.5661 18.12C71.4301 18.12 72.1741 18.3147 72.7981 18.704C73.4221 19.088 73.8994 19.624 74.2301 20.312C74.5661 20.9947 74.7341 21.7813 74.7341 22.672C74.7341 23.5733 74.5661 24.368 74.2301 25.056C73.8941 25.7387 73.4141 26.2747 72.7901 26.664C72.1661 27.048 71.4248 27.24 70.5661 27.24ZM70.5661 25.888C71.4621 25.888 72.1288 25.5893 72.5661 24.992C73.0034 24.3947 73.2221 23.6213 73.2221 22.672C73.2221 21.696 73.0008 20.92 72.5581 20.344C72.1154 19.7627 71.4514 19.472 70.5661 19.472C69.9634 19.472 69.4674 19.608 69.0781 19.88C68.6888 20.152 68.3981 20.528 68.2061 21.008C68.0141 21.488 67.9181 22.0427 67.9181 22.672C67.9181 23.6427 68.1421 24.4213 68.5901 25.008C69.0381 25.5947 69.6968 25.888 70.5661 25.888ZM79.8875 27.24C79.0822 27.24 78.3915 27.04 77.8155 26.64C77.2395 26.2347 76.7942 25.688 76.4795 25C76.1702 24.312 76.0155 23.536 76.0155 22.672C76.0155 21.808 76.1702 21.032 76.4795 20.344C76.7942 19.656 77.2395 19.1147 77.8155 18.72C78.3915 18.32 79.0795 18.12 79.8795 18.12C80.6955 18.12 81.3808 18.3173 81.9355 18.712C82.4902 19.1067 82.9088 19.648 83.1915 20.336C83.4795 21.024 83.6235 21.8027 83.6235 22.672C83.6235 23.5307 83.4795 24.3067 83.1915 25C82.9088 25.688 82.4902 26.2347 81.9355 26.64C81.3808 27.04 80.6982 27.24 79.8875 27.24ZM80.0635 25.936C80.6448 25.936 81.1222 25.7973 81.4955 25.52C81.8688 25.2373 82.1435 24.8507 82.3195 24.36C82.5008 23.864 82.5915 23.3013 82.5915 22.672C82.5915 22.032 82.5008 21.4693 82.3195 20.984C82.1435 20.4933 81.8715 20.112 81.5035 19.84C81.1355 19.5627 80.6688 19.424 80.1035 19.424C79.5168 19.424 79.0315 19.568 78.6475 19.856C78.2688 20.144 77.9862 20.5333 77.7995 21.024C77.6182 21.5147 77.5275 22.064 77.5275 22.672C77.5275 23.2853 77.6208 23.84 77.8075 24.336C77.9942 24.8267 78.2742 25.216 78.6475 25.504C79.0262 25.792 79.4982 25.936 80.0635 25.936ZM82.5915 27V20.64H82.4315V15.48H83.8635V27H82.5915Z" fill="#FF5533"/>
</svg>
