<svg width="117" height="42" viewBox="0 0 117 42" fill="none" xmlns="http://www.w3.org/2000/svg">
<rect x="0.609863" y="0.5" width="115" height="41" rx="20.5" fill="#FFEEEB"/>
<rect x="0.609863" y="0.5" width="115" height="41" rx="20.5" stroke="#FFEEEB"/>
<path d="M38.5346 27.2925L31.9571 14.04C31.8947 13.9127 31.7975 13.8056 31.6767 13.7313C31.5559 13.6569 31.4165 13.6184 31.2746 13.62C31.1329 13.6232 30.995 13.6664 30.8769 13.7447C30.7587 13.8231 30.6652 13.9333 30.6071 14.0625L27.8921 20.1L25.6946 17.6025C25.6187 17.518 25.5246 17.4517 25.4194 17.4089C25.3141 17.366 25.2005 17.3476 25.0871 17.355C24.9745 17.3613 24.8648 17.3929 24.7662 17.4475C24.6675 17.502 24.5823 17.5781 24.5171 17.67L17.7671 27.195C17.6881 27.306 17.6408 27.4363 17.6302 27.572C17.6196 27.7078 17.6462 27.8439 17.7071 27.9657C17.768 28.0875 17.8609 28.1904 17.9759 28.2634C18.0908 28.3364 18.2235 28.3767 18.3596 28.38H37.8596C37.9871 28.3803 38.1125 28.3481 38.224 28.2864C38.3356 28.2247 38.4296 28.1356 38.4971 28.0275C38.566 27.9186 38.6057 27.7937 38.6122 27.665C38.6188 27.5362 38.5921 27.408 38.5346 27.2925Z" fill="#FF5533"/>
<path d="M49.4096 27V15.48H50.8496L56.8576 24.48V15.48H58.2976V27H56.8576L50.8496 17.992V27H49.4096ZM62.9906 27.24C62.3452 27.24 61.8039 27.1227 61.3666 26.888C60.9346 26.648 60.6066 26.3333 60.3826 25.944C60.1639 25.5547 60.0546 25.128 60.0546 24.664C60.0546 24.2107 60.1399 23.8187 60.3106 23.488C60.4866 23.152 60.7319 22.8747 61.0466 22.656C61.3612 22.432 61.7372 22.256 62.1746 22.128C62.5852 22.016 63.0439 21.92 63.5506 21.84C64.0626 21.7547 64.5799 21.6773 65.1026 21.608C65.6252 21.5387 66.1132 21.472 66.5666 21.408L66.0546 21.704C66.0706 20.936 65.9159 20.368 65.5906 20C65.2706 19.632 64.7159 19.448 63.9266 19.448C63.4039 19.448 62.9452 19.568 62.5506 19.808C62.1612 20.0427 61.8866 20.4267 61.7266 20.96L60.3746 20.552C60.5826 19.7947 60.9852 19.2 61.5826 18.768C62.1799 18.336 62.9666 18.12 63.9426 18.12C64.7266 18.12 65.3986 18.2613 65.9586 18.544C66.5239 18.8213 66.9292 19.2427 67.1746 19.808C67.2972 20.0747 67.3746 20.3653 67.4066 20.68C67.4386 20.9893 67.4546 21.3147 67.4546 21.656V27H66.1906V24.928L66.4866 25.12C66.1612 25.8187 65.7052 26.3467 65.1186 26.704C64.5372 27.0613 63.8279 27.24 62.9906 27.24ZM63.2066 26.048C63.7186 26.048 64.1612 25.9573 64.5346 25.776C64.9132 25.5893 65.2172 25.3467 65.4466 25.048C65.6759 24.744 65.8252 24.4133 65.8946 24.056C65.9746 23.7893 66.0172 23.4933 66.0226 23.168C66.0332 22.8373 66.0386 22.584 66.0386 22.408L66.5346 22.624C66.0706 22.688 65.6146 22.7493 65.1666 22.808C64.7186 22.8667 64.2946 22.9307 63.8946 23C63.4946 23.064 63.1346 23.1413 62.8146 23.232C62.5799 23.3067 62.3586 23.4027 62.1506 23.52C61.9479 23.6373 61.7826 23.7893 61.6546 23.976C61.5319 24.1573 61.4706 24.384 61.4706 24.656C61.4706 24.8907 61.5292 25.1147 61.6466 25.328C61.7692 25.5413 61.9559 25.7147 62.2066 25.848C62.4626 25.9813 62.7959 26.048 63.2066 26.048ZM74.3586 27C73.8466 27.1013 73.3399 27.1413 72.8386 27.12C72.3426 27.104 71.8999 27.0053 71.5106 26.824C71.1212 26.6373 70.8252 26.3493 70.6226 25.96C70.4519 25.6187 70.3586 25.2747 70.3426 24.928C70.3319 24.576 70.3266 24.1787 70.3266 23.736V15.96H71.7506V23.672C71.7506 24.024 71.7532 24.3253 71.7586 24.576C71.7692 24.8267 71.8252 25.0427 71.9266 25.224C72.1186 25.5653 72.4226 25.7653 72.8386 25.824C73.2599 25.8827 73.7666 25.8667 74.3586 25.776V27ZM68.5746 19.536V18.36H74.3586V19.536H68.5746ZM79.3927 27.224C78.838 27.224 78.3607 27.136 77.9607 26.96C77.566 26.784 77.238 26.5493 76.9767 26.256C76.7153 25.9627 76.51 25.6373 76.3607 25.28C76.2113 24.9227 76.1047 24.5573 76.0407 24.184C75.982 23.8107 75.9527 23.4613 75.9527 23.136V18.36H77.3927V22.688C77.3927 23.0933 77.43 23.4853 77.5047 23.864C77.5793 24.2427 77.7047 24.584 77.8807 24.888C78.062 25.192 78.302 25.432 78.6007 25.608C78.9047 25.784 79.2833 25.872 79.7367 25.872C80.094 25.872 80.4193 25.8107 80.7127 25.688C81.006 25.5653 81.2567 25.384 81.4647 25.144C81.6727 24.8987 81.8327 24.5893 81.9447 24.216C82.0567 23.8427 82.1127 23.408 82.1127 22.912L83.0487 23.2C83.0487 24.032 82.8967 24.7493 82.5927 25.352C82.294 25.9547 81.87 26.4187 81.3207 26.744C80.7767 27.064 80.134 27.224 79.3927 27.224ZM82.2727 27V24.688H82.1127V18.36H83.5447V27H82.2727ZM85.7846 27V18.36H87.0566V20.448L86.8486 20.176C86.9499 19.9093 87.0806 19.664 87.2406 19.44C87.4059 19.216 87.5899 19.032 87.7926 18.888C88.0166 18.7067 88.2699 18.568 88.5526 18.472C88.8352 18.376 89.1232 18.32 89.4166 18.304C89.7099 18.2827 89.9846 18.3013 90.2406 18.36V19.696C89.9419 19.616 89.6139 19.5947 89.2566 19.632C88.8992 19.6693 88.5686 19.8 88.2646 20.024C87.9872 20.2213 87.7712 20.4613 87.6166 20.744C87.4672 21.0267 87.3632 21.3333 87.3046 21.664C87.2459 21.9893 87.2166 22.3227 87.2166 22.664V27H85.7846ZM95.3411 27.24C94.4931 27.24 93.7517 27.0533 93.1171 26.68C92.4877 26.3013 91.9971 25.776 91.6451 25.104C91.2931 24.4267 91.1171 23.6373 91.1171 22.736C91.1171 21.792 91.2904 20.976 91.6371 20.288C91.9837 19.5947 92.4664 19.0613 93.0851 18.688C93.7091 18.3093 94.4397 18.12 95.2771 18.12C96.1464 18.12 96.8851 18.32 97.4931 18.72C98.1064 19.12 98.5651 19.6907 98.8691 20.432C99.1784 21.1733 99.3117 22.056 99.2691 23.08H97.8291V22.568C97.8131 21.5067 97.5971 20.7147 97.1811 20.192C96.7651 19.664 96.1464 19.4 95.3251 19.4C94.4451 19.4 93.7757 19.6827 93.3171 20.248C92.8584 20.8133 92.6291 21.624 92.6291 22.68C92.6291 23.6987 92.8584 24.488 93.3171 25.048C93.7757 25.608 94.4291 25.888 95.2771 25.888C95.8477 25.888 96.3437 25.7573 96.7651 25.496C97.1864 25.2347 97.5171 24.8587 97.7571 24.368L99.1251 24.84C98.7891 25.6027 98.2824 26.1947 97.6051 26.616C96.9331 27.032 96.1784 27.24 95.3411 27.24ZM92.1491 23.08V21.936H98.5331V23.08H92.1491Z" fill="#FF5533"/>
</svg>
