<svg width="47" height="95" viewBox="0 0 47 95" fill="none" xmlns="http://www.w3.org/2000/svg">
<g clip-path="url(#clip0_39_1862)">
<g clip-path="url(#clip1_39_1862)">
<mask id="mask0_39_1862" style="mask-type:luminance" maskUnits="userSpaceOnUse" x="0" y="0" width="47" height="39">
<path d="M47 0H0V39H47V0Z" fill="white"/>
</mask>
<g mask="url(#mask0_39_1862)">
<path d="M0 23.4559C0.0172906 23.5838 0.0820396 23.7003 0.181211 23.782C0.280383 23.8637 0.406612 23.9045 0.534485 23.8963C0.665923 23.9025 0.794832 23.8584 0.895281 23.7728C0.99573 23.6872 1.06027 23.5665 1.07591 23.435C1.29731 21.9023 2.00889 20.4841 3.10279 19.3952C3.68798 18.8126 4.35729 18.3225 5.08802 17.9414C5.46147 17.7546 5.8491 17.598 6.24723 17.4732C6.37211 17.43 6.49964 17.3949 6.62901 17.3683C6.95525 17.2914 7.28844 17.2145 7.42032 16.9979C7.44682 16.9535 7.46119 16.9029 7.46197 16.8511C7.45591 16.7962 7.4362 16.7437 7.40465 16.6985C7.37311 16.6533 7.33075 16.6169 7.2815 16.5925C7.17622 16.5315 7.05572 16.5024 6.93443 16.5086C6.63234 16.5279 6.33501 16.5939 6.05287 16.7043L5.90016 16.7533C5.42452 16.8969 4.96042 17.0768 4.51189 17.2914C3.67846 17.6939 2.91074 18.2218 2.23512 18.857C1.57551 19.4337 1.03775 20.1379 0.65378 20.928C0.269816 21.718 0.0474853 22.5777 0 23.4559Z" fill="#8E8E8E"/>
<path d="M5.86572 22.8828C5.88849 22.9771 5.93048 23.0655 5.98904 23.1425C6.0476 23.2195 6.12143 23.2834 6.20585 23.3301C6.41081 23.4525 6.62422 23.56 6.84445 23.6516L9.4197 24.8188C12.3628 26.1608 15.4031 27.5447 18.4434 28.8936C18.6966 28.9803 18.9222 29.1336 19.0967 29.3376C19.2712 29.5416 19.3884 29.7888 19.4361 30.0538C19.8178 31.9968 20.2413 33.9748 20.6439 35.8898L20.9562 37.3715C21.0105 37.6393 21.0824 37.9031 21.1714 38.1613C21.2183 38.3454 21.3102 38.5147 21.4387 38.6539C21.5672 38.793 21.7283 38.8976 21.9072 38.9581C22.1299 38.9893 22.3569 38.9655 22.5685 38.8888C22.7801 38.8121 22.97 38.6847 23.1219 38.5178C23.2691 38.3839 23.406 38.2391 23.5315 38.0844C24.4894 36.8963 25.5514 35.75 26.5787 34.6457C27.2729 33.9049 27.967 33.143 28.6611 32.3742C28.791 32.2187 28.9523 32.0928 29.1342 32.0048C29.3161 31.9169 29.5145 31.8689 29.7162 31.864C33.4229 31.6054 37.199 31.3188 40.8224 31.0463L43.6823 30.8366C44.4805 30.7807 45.3065 30.7178 46.1187 30.6269C46.9308 30.5361 47.0349 30.2495 47.021 29.928L46.5074 25.5317C46.2297 22.9387 45.966 20.3947 45.6952 17.8436C45.5842 16.7602 45.4384 15.3904 45.2857 13.9016C44.772 8.70164 43.9599 0.831751 43.7864 0.356482C43.7308 0.202719 43.6614 0.0419662 43.5851 3.07411e-05C43.5087 -0.0419048 43.3005 0.0489555 43.1131 0.139816C42.5341 0.435438 41.9753 0.769322 41.4402 1.13928C41.1417 1.34197 40.8363 1.54465 40.517 1.73336L7.04575 21.8414L6.90692 21.9253C6.63656 22.0774 6.37681 22.2478 6.12949 22.4355C6.05638 22.4868 5.99502 22.5533 5.94953 22.6304C5.90403 22.7076 5.87546 22.7936 5.86572 22.8828ZM29.3414 30.571L42.4536 4.25648L42.5369 4.07476L42.6827 4.20756C42.7752 4.28965 42.8491 4.3908 42.8994 4.50415C42.9497 4.6175 42.9752 4.7404 42.9742 4.86455L43.3768 8.78551C43.6591 11.5533 43.946 14.321 44.2376 17.0887C44.5569 20.1174 44.8808 23.1461 45.2093 26.1748L45.4939 28.7468C45.4939 29.0893 45.5495 29.278 45.4315 29.4457C45.3135 29.6135 45.0844 29.6135 44.7373 29.6414L36.5673 30.2635L34.5266 30.4102L30.7297 30.6898H30.5145C30.3717 30.7092 30.2281 30.7209 30.0841 30.7248C29.9004 30.7257 29.7176 30.6974 29.5427 30.6409L29.3414 30.571ZM21.0812 28.3065C21.6226 27.7194 22.1224 27.0834 22.6083 26.4753C22.8096 26.2237 23.0109 25.9721 23.2191 25.7275L41.2667 3.27799L41.7595 3.65541C41.7595 3.65541 34.9361 15.7468 34.2836 16.7742C33.3257 18.6823 31.639 22.2188 30.2854 25.0635C28.4321 28.9565 27.9531 29.9559 27.8698 30.0398C26.9605 31.0113 22.0946 36.421 22.0946 36.421V36.2602L21.8447 35.0301C21.6573 34.1425 21.4838 33.2758 21.3102 32.4162C21.2547 32.1645 21.2061 31.9059 21.1575 31.6543C21.0256 30.9904 20.8937 30.2984 20.7133 29.6344C20.6448 29.4006 20.6429 29.1521 20.708 28.9173C20.773 28.6825 20.9023 28.4708 21.0812 28.3065ZM7.8926 22.7151L40.3365 2.64197L40.4476 2.57207L40.5309 2.6839C40.7599 2.99842 26.19 20.0382 20.158 27.4328C19.8387 27.8312 19.6721 27.992 19.4638 27.992C19.2494 27.9677 19.0419 27.9012 18.853 27.7963L9.68347 23.6027L8.40626 23.0645L8.22578 22.9527L8.0939 22.8619L7.8926 22.7151Z" fill="#8E8E8E"/>
</g>
<mask id="mask1_39_1862" style="mask-type:luminance" maskUnits="userSpaceOnUse" x="20" y="45" width="27" height="50">
<path d="M47 45H20V95H47V45Z" fill="white"/>
</mask>
<g mask="url(#mask1_39_1862)">
<path d="M42.7696 92.428C42.8842 92.3179 43.0259 92.2402 43.1802 92.2029C43.3345 92.1655 43.4959 92.1698 43.648 92.2154C43.7284 92.2417 43.8062 92.2756 43.8803 92.3166C44.7789 92.8938 45.7079 93.4406 46.657 93.9468C46.7356 93.9851 46.8056 94.0389 46.8629 94.105C46.9202 94.1711 46.9635 94.2482 46.9902 94.3316C47.0047 94.3962 47.005 94.4632 46.991 94.5279C46.9771 94.5926 46.9492 94.6534 46.9094 94.7062C46.8238 94.8086 46.7149 94.8887 46.5919 94.9398C46.4688 94.991 46.3353 95.0116 46.2026 94.9999C46.0749 94.9892 45.951 94.9512 45.8391 94.8885C44.8294 94.362 43.8197 93.7949 42.9513 93.2178C42.8088 93.1287 42.7072 92.9868 42.6686 92.8229C42.6559 92.7537 42.6584 92.6825 42.6758 92.6143C42.6932 92.5461 42.7252 92.4826 42.7696 92.428Z" fill="#8E8E8E"/>
<path d="M35.2262 86.6259C35.2342 86.55 35.2593 86.4768 35.2995 86.4119C35.3397 86.347 35.394 86.2921 35.4584 86.2513C35.5698 86.1804 35.6948 86.1339 35.8252 86.1147C35.9557 86.0955 36.0888 86.1041 36.2157 86.1399C36.3531 86.1782 36.4783 86.2514 36.5792 86.3525C37.3062 87.1018 38.0534 87.8309 38.8208 88.5093C38.8811 88.558 38.9296 88.6197 38.9629 88.6898C38.9961 88.7599 39.0131 88.8367 39.0127 88.9143C39.0107 88.9872 38.9925 89.0587 38.9593 89.1235C38.9261 89.1884 38.8788 89.2449 38.8208 89.2889C38.6485 89.4146 38.4376 89.4755 38.2251 89.4611C38.0316 89.4495 37.8472 89.3748 37.7 89.2484C36.9023 88.5397 36.1248 87.7904 35.3777 87.0208C35.3265 86.9691 35.2867 86.9073 35.2606 86.8393C35.2346 86.7713 35.2228 86.6987 35.2262 86.6259Z" fill="#8E8E8E"/>
<path d="M29.4913 79.3152C29.4866 79.2816 29.4866 79.2475 29.4913 79.2139C29.5194 79.1322 29.5645 79.0573 29.6237 78.9945C29.6829 78.9316 29.7548 78.8822 29.8346 78.8494C30.0411 78.7807 30.2642 78.7807 30.4707 78.8494C30.6488 78.8914 30.8042 79.0001 30.9049 79.1532C31.4603 80.0138 32.0358 80.8644 32.6215 81.6542C32.6693 81.7142 32.702 81.7849 32.7166 81.8602C32.7313 81.9356 32.7276 82.0134 32.7058 82.0871C32.6839 82.1607 32.6447 82.2279 32.5913 82.283C32.5379 82.3381 32.4721 82.3794 32.3993 82.4035C32.219 82.4983 32.0119 82.5289 31.8119 82.4903C31.612 82.4517 31.431 82.3461 31.2987 82.1908C30.7232 81.3403 30.0971 80.4391 29.5721 79.5987C29.5097 79.5182 29.4807 79.4166 29.4913 79.3152Z" fill="#8E8E8E"/>
<path d="M25.2812 71.3261C25.267 71.2696 25.267 71.2105 25.2812 71.154C25.3231 71.0716 25.383 70.9997 25.4564 70.9436C25.5298 70.8875 25.6149 70.8487 25.7052 70.83C25.8766 70.7793 26.0589 70.7793 26.2303 70.83C26.3334 70.8533 26.4301 70.899 26.5139 70.9637C26.5976 71.0284 26.6662 71.1106 26.715 71.2046C27.0886 72.0754 27.5025 72.9867 27.9468 73.9081C27.974 73.9668 27.988 74.0308 27.988 74.0955C27.988 74.1602 27.974 74.2241 27.9468 74.2828C27.9081 74.3659 27.852 74.4397 27.7823 74.4991C27.7126 74.5585 27.631 74.6022 27.5429 74.6271C27.4301 74.6692 27.3096 74.6864 27.1895 74.6777C27.0524 74.6757 26.9182 74.6383 26.7996 74.5692C26.6811 74.5 26.5824 74.4014 26.513 74.2828C26.0788 73.3917 25.6548 72.4703 25.2509 71.5286C25.2415 71.4596 25.252 71.3893 25.2812 71.3261Z" fill="#8E8E8E"/>
<path d="M22.3726 62.8815C22.3757 62.8053 22.4002 62.7316 22.4433 62.6688C22.4986 62.5851 22.5716 62.5144 22.6571 62.462C22.7426 62.4095 22.8385 62.3764 22.938 62.3651C23.0772 62.3295 23.223 62.3295 23.3621 62.3651C23.4777 62.3887 23.5851 62.4423 23.6737 62.5205C23.7622 62.5986 23.8289 62.6986 23.867 62.8106C24.1194 63.7523 24.4021 64.6939 24.695 65.6255C24.72 65.683 24.7329 65.745 24.7329 65.8077C24.7329 65.8705 24.72 65.9325 24.695 65.99C24.6414 66.072 24.5716 66.1422 24.49 66.1961C24.4084 66.2501 24.3167 66.2868 24.2204 66.3039C24.1335 66.3186 24.0448 66.3186 23.9579 66.3039C23.8086 66.3049 23.6625 66.2611 23.5383 66.1781C23.4142 66.0951 23.3176 65.9767 23.2612 65.8381C22.9683 64.9471 22.6856 63.9851 22.413 62.9827C22.3924 62.9523 22.3786 62.9178 22.3726 62.8815Z" fill="#8E8E8E"/>
<path d="M20.7369 53.9914C20.8723 53.833 21.0646 53.7347 21.272 53.718C21.3893 53.7014 21.5082 53.7014 21.6254 53.718C21.7512 53.7428 21.867 53.8039 21.9585 53.8939C22.05 53.9839 22.1132 54.0987 22.1404 54.2243C22.2717 55.1761 22.4231 56.138 22.5948 57.1C22.6068 57.1605 22.6048 57.223 22.5891 57.2827C22.5733 57.3423 22.5442 57.3976 22.5039 57.4442C22.4381 57.525 22.3569 57.5917 22.265 57.6404C22.173 57.6891 22.0723 57.7188 21.9687 57.7278H21.7971C21.6393 57.7248 21.4863 57.6725 21.3595 57.5781C21.2328 57.4837 21.1387 57.3519 21.0903 57.2012C20.9186 56.1887 20.7571 55.1761 20.6359 54.2851C20.6334 54.1782 20.6692 54.074 20.7369 53.9914Z" fill="#8E8E8E"/>
<path d="M20 45.5567C20.0045 45.4267 20.0587 45.3034 20.1515 45.2125C20.2311 45.1382 20.325 45.081 20.4274 45.0444C20.5299 45.0078 20.6387 44.9927 20.7472 44.9998C20.8339 44.9831 20.923 44.9831 21.0097 44.9998C21.1481 45.029 21.2729 45.1035 21.3643 45.2117C21.4558 45.3199 21.5086 45.4555 21.5146 45.5972C21.5146 46.6098 21.5146 47.5413 21.5954 48.4931C21.6006 48.5567 21.5916 48.6207 21.5689 48.6803C21.5461 48.7399 21.5103 48.7936 21.4641 48.8374C21.3872 48.9096 21.2967 48.9657 21.1978 49.0022C21.099 49.0387 20.9938 49.055 20.8886 49.05H20.7977C20.6277 49.055 20.4617 48.9983 20.33 48.8905C20.1983 48.7826 20.1099 48.6307 20.0808 48.4628C20 47.4907 20 46.5085 20 45.5567Z" fill="#8E8E8E"/>
</g>
</g>
</g>
<defs>
<clipPath id="clip0_39_1862">
<rect width="47" height="95" fill="white"/>
</clipPath>
<clipPath id="clip1_39_1862">
<rect width="47" height="95" fill="white"/>
</clipPath>
</defs>
</svg>
