<svg width="217" height="52" viewBox="0 0 217 52" fill="none" xmlns="http://www.w3.org/2000/svg">
<rect width="216.56" height="52" rx="26" fill="#FF8B73"/>
<g clip-path="url(#clip0_227_32)">
<path d="M35.6495 37.9222C48.7038 37.173 51.1308 18.7881 38.744 14.6596C35.3164 13.5125 31.3864 14.0343 28.3877 16.0571H28.3886C26.9989 16.9811 25.8183 18.1861 24.923 19.5945C24.0276 21.0029 23.4375 22.5833 23.1906 24.2338L23.1899 24.2333C22.015 31.601 28.1971 38.4094 35.6495 37.9222ZM45.3112 30.3554C44.8851 31.3643 44.3123 32.3048 43.6115 33.1464C43.562 32.8514 43.6985 32.5098 43.4951 32.2345C43.2744 31.8042 43.07 31.3653 42.8401 30.9401C42.7546 30.782 42.7781 30.6912 42.9041 30.5773C44.2538 29.3931 43.0506 30.0228 43.1832 28.3302C43.188 28.2845 43.1789 28.2384 43.1572 28.1979C43.1354 28.1573 43.102 28.1242 43.0613 28.1029C42.4216 27.6944 41.5864 27.5541 40.9253 28.0081C40.1013 28.3975 38.926 28.0996 38.6595 27.1539C38.4237 26.5252 38.4527 25.8904 38.4465 25.2484C38.4845 24.9022 38.9594 24.8441 38.8824 24.4439C38.9007 23.9358 38.7351 23.3994 39.2156 23.0677C39.2524 23.0352 39.2963 23.0118 39.3437 22.9992C39.3912 22.9866 39.4409 22.9853 39.489 22.9953C39.9281 23.0484 40.3718 22.9449 40.7421 22.7031C41.1347 22.4541 41.6196 22.6153 42.0546 22.5586C42.2619 22.5439 42.4155 22.6048 42.5431 22.7661C42.7941 23.083 43.1867 23.1761 43.5165 23.3685C43.6275 23.4333 43.687 23.3517 43.7391 23.2845C44.0162 22.9271 44.4408 22.807 44.8131 22.6014C45.0159 22.4852 45.4225 22.9288 45.7686 22.9446C46.4584 25.3589 46.2983 28.0466 45.3112 30.3554ZM45.1491 21.2814C44.7357 21.3358 45.0137 20.9431 44.8004 20.7376C44.5861 20.5465 44.3824 20.3439 44.19 20.1308C44.0904 20.0244 44.0259 20.0073 43.9107 20.1209C43.6014 20.427 43.6187 20.3945 43.9795 20.7603C44.4007 21.2233 44.7182 21.2156 43.9561 21.5374C43.7826 21.6155 43.6188 21.7934 43.4296 21.5363C43.315 21.3807 43.159 21.2762 43.1776 21.0365C43.206 20.6669 42.9241 20.399 42.7936 20.0799C42.7547 19.9847 42.6858 20.0518 42.6491 20.0987C42.3746 20.4515 41.96 20.588 41.5845 20.784C40.9358 21.3512 41.0838 21.2894 40.223 21.2647C40.1433 21.2682 40.1199 21.1721 40.0853 21.1159C39.6519 20.4063 39.7359 20.2333 40.185 19.5635C40.3501 19.4644 41.08 19.5787 41.2179 19.7228C41.28 19.7875 41.3309 19.8629 41.4204 19.9757C41.4891 19.701 41.4543 19.4905 41.4614 19.2832C41.5778 18.4325 42.2926 18.8158 42.8001 18.6311C43.0399 18.4477 43.1384 18.3565 43.0875 18.2665C43.9359 19.1512 44.6324 20.1699 45.1491 21.2814ZM43.0181 18.1953C42.6717 17.9698 41.9022 17.732 41.8817 17.1748C42.2835 17.4885 42.6632 17.8294 43.0181 18.1953ZM27.0878 18.0875C27.7335 17.4409 28.4559 16.8757 29.2389 16.4047C29.5052 16.5406 29.6952 17.0407 30.0293 16.863C30.3855 16.6761 30.7652 16.5278 31.0209 16.1936C31.1658 16.0175 31.4194 16.1523 31.6086 16.0989C32.3526 15.9981 32.5538 16.8453 32.8321 17.3492C32.8075 17.3699 32.7946 17.3897 32.7839 17.3885C32.1383 17.3157 31.5464 17.5229 30.9613 17.7482C30.7691 17.8222 30.621 17.8285 30.5008 17.6435C30.3522 17.4146 30.1613 17.408 29.9242 17.5067C29.7046 17.6619 28.9158 17.6887 28.9703 18.0002C29.0238 18.2929 28.7928 18.7917 29.3181 18.692C29.5642 18.6063 29.7758 19.3337 29.9262 18.9155C30.249 17.6077 31.6098 18.749 32.659 17.9133C33.0451 17.6843 33.3625 18.4387 33.5125 18.7044C33.6265 18.9538 33.709 19.2473 34.1098 19.1603C33.8585 19.4118 33.6054 19.6615 33.3569 19.9157C33.2848 19.9894 33.2192 19.9658 33.1383 19.9377C32.8258 19.8292 32.5091 19.7328 32.1977 19.6213C32.0492 19.568 31.9779 19.5628 31.9813 19.7619C32.2355 21.1306 31.0695 19.8105 30.2597 20.837C29.2493 21.8525 30.0313 22.7047 28.6426 23.7723C28.5595 23.8485 28.4906 23.8577 28.4085 23.7974C27.8052 23.3691 26.4498 23.1365 25.9991 23.8365C25.9927 23.8576 25.9911 23.8799 25.9945 23.9016C25.9979 23.9234 26.0063 23.9442 26.0189 23.9622C26.2603 24.3491 26.2792 25 26.7375 24.351C26.8739 24.2348 27.0341 24.2739 27.1738 24.2971C27.3207 24.3215 27.2477 24.4772 27.2441 24.5677C27.2649 24.9286 27.784 24.9929 27.6819 25.3993C27.6236 25.6932 27.9939 25.5307 28.1566 25.58C28.4196 25.618 28.6192 25.53 28.7878 25.3246C28.9156 25.1688 29.6497 25.063 29.8187 25.1632C29.9527 25.2982 30.009 25.5092 30.1051 25.6741C30.2649 25.9948 30.2718 26.0012 30.5071 25.7478C31.0475 25.3235 31.8072 25.6592 32.3215 25.9538C32.7255 26.1801 32.5921 26.9881 33.1939 26.872C33.3095 26.8447 33.372 26.9432 33.4354 27.0146C33.8725 27.5494 34.5784 27.4854 34.8369 28.2187C35.0035 28.5246 34.9857 28.7927 34.8442 29.0953C34.7436 29.6637 34.4641 30.0825 33.8739 30.2417C33.4059 30.4098 34.1954 31.1734 33.1242 31.4779C32.8494 31.5377 32.8139 31.7481 32.8494 31.9949C32.9631 32.6304 32.8088 33.11 32.1098 33.2775C31.903 33.3458 31.9399 33.6207 31.8418 33.7773C31.3595 34.6562 31.7979 35.2974 32.4121 35.9129C31.873 35.9448 31.2888 35.9996 31.1025 35.4193C30.8697 34.7432 30.659 34.0612 30.3138 33.4292C30.1979 33.2169 30.2725 32.9703 30.2695 32.7401C30.1854 31.7983 29.2236 31.0933 29.4043 30.0897C29.4743 29.5871 28.7574 30.3049 28.0151 29.3901C27.7677 29.0967 27.1921 28.3873 27.2915 28.0197C27.4947 27.5132 27.5161 26.9022 27.9852 26.5506C28.1851 26.3952 28.2032 25.9108 27.8305 26.0048C26.8732 26.165 27.0777 25.4456 26.517 25.5822C26.1373 25.6226 25.8632 25.4981 25.5682 25.2325C24.6829 24.4183 24.4291 25.0215 23.9219 24.4179C24.2623 22.0201 25.3735 19.7982 27.0878 18.0875Z" fill="white"/>
</g>
<path d="M58.2639 32V20.48H65.7039V22.288H60.1919V25.128H64.7439V26.936H60.1919V30.192H65.7039V32H58.2639ZM66.6633 32L69.8233 27.632L66.7273 23.36H68.9993L70.9433 26.12L72.8553 23.36H75.1273L72.0313 27.632L75.2073 32H72.9353L70.9433 29.144L68.9353 32H66.6633ZM80.6346 32.24C79.792 32.24 79.0853 32.04 78.5146 31.64C77.944 31.24 77.5146 30.696 77.2266 30.008C76.9386 29.3147 76.7946 28.5387 76.7946 27.68C76.7946 26.8107 76.9386 26.032 77.2266 25.344C77.5146 24.656 77.936 24.1147 78.4906 23.72C79.0506 23.32 79.7413 23.12 80.5626 23.12C81.3786 23.12 82.0853 23.32 82.6826 23.72C83.2853 24.1147 83.752 24.656 84.0826 25.344C84.4133 26.0267 84.5786 26.8053 84.5786 27.68C84.5786 28.544 84.416 29.32 84.0906 30.008C83.7653 30.696 83.3066 31.24 82.7146 31.64C82.1226 32.04 81.4293 32.24 80.6346 32.24ZM76.4666 35.84V23.36H78.1706V29.424H78.4106V35.84H76.4666ZM80.3386 30.512C80.84 30.512 81.2533 30.3867 81.5786 30.136C81.904 29.8853 82.144 29.5467 82.2986 29.12C82.4586 28.688 82.5386 28.208 82.5386 27.68C82.5386 27.1573 82.4586 26.6827 82.2986 26.256C82.1386 25.824 81.8906 25.4827 81.5546 25.232C81.2186 24.976 80.792 24.848 80.2746 24.848C79.784 24.848 79.384 24.968 79.0746 25.208C78.7653 25.4427 78.536 25.7733 78.3866 26.2C78.2426 26.6213 78.1706 27.1147 78.1706 27.68C78.1706 28.24 78.2426 28.7333 78.3866 29.16C78.536 29.5867 78.768 29.92 79.0826 30.16C79.4026 30.3947 79.8213 30.512 80.3386 30.512ZM86.502 32V20.24H88.43V32H86.502ZM94.6424 32.24C93.7784 32.24 93.0237 32.0453 92.3784 31.656C91.7331 31.2667 91.2317 30.7307 90.8744 30.048C90.5224 29.36 90.3464 28.5707 90.3464 27.68C90.3464 26.7733 90.5277 25.9787 90.8904 25.296C91.2531 24.6133 91.7571 24.08 92.4024 23.696C93.0477 23.312 93.7944 23.12 94.6424 23.12C95.5117 23.12 96.2691 23.3147 96.9144 23.704C97.5597 24.0933 98.0611 24.632 98.4184 25.32C98.7757 26.0027 98.9544 26.7893 98.9544 27.68C98.9544 28.576 98.7731 29.368 98.4104 30.056C98.0531 30.7387 97.5517 31.2747 96.9064 31.664C96.2611 32.048 95.5064 32.24 94.6424 32.24ZM94.6424 30.432C95.4104 30.432 95.9811 30.176 96.3544 29.664C96.7277 29.152 96.9144 28.4907 96.9144 27.68C96.9144 26.8427 96.7251 26.176 96.3464 25.68C95.9677 25.1787 95.3997 24.928 94.6424 24.928C94.1251 24.928 93.6984 25.0453 93.3624 25.28C93.0317 25.5093 92.7864 25.832 92.6264 26.248C92.4664 26.6587 92.3864 27.136 92.3864 27.68C92.3864 28.5173 92.5757 29.1867 92.9544 29.688C93.3384 30.184 93.9011 30.432 94.6424 30.432ZM100.717 32V23.36H102.421V25.464L102.213 25.192C102.32 24.904 102.461 24.6427 102.637 24.408C102.818 24.168 103.034 23.9707 103.285 23.816C103.498 23.672 103.733 23.56 103.989 23.48C104.25 23.3947 104.517 23.344 104.789 23.328C105.061 23.3067 105.325 23.3173 105.581 23.36V25.16C105.325 25.0853 105.029 25.0613 104.693 25.088C104.362 25.1147 104.064 25.208 103.797 25.368C103.53 25.512 103.312 25.696 103.141 25.92C102.976 26.144 102.853 26.4 102.773 26.688C102.693 26.9707 102.653 27.2773 102.653 27.608V32H100.717ZM110.879 32.24C110.005 32.24 109.237 32.0507 108.575 31.672C107.914 31.2933 107.397 30.768 107.023 30.096C106.655 29.424 106.471 28.6507 106.471 27.776C106.471 26.832 106.653 26.0133 107.015 25.32C107.378 24.6213 107.882 24.08 108.527 23.696C109.173 23.312 109.919 23.12 110.767 23.12C111.663 23.12 112.423 23.3307 113.047 23.752C113.677 24.168 114.143 24.7573 114.447 25.52C114.751 26.2827 114.866 27.1813 114.791 28.216H112.879V27.512C112.874 26.5733 112.709 25.888 112.383 25.456C112.058 25.024 111.546 24.808 110.847 24.808C110.058 24.808 109.471 25.0533 109.087 25.544C108.703 26.0293 108.511 26.7413 108.511 27.68C108.511 28.5547 108.703 29.232 109.087 29.712C109.471 30.192 110.031 30.432 110.767 30.432C111.242 30.432 111.65 30.328 111.991 30.12C112.338 29.9067 112.605 29.6 112.791 29.2L114.695 29.776C114.365 30.5547 113.853 31.16 113.159 31.592C112.471 32.024 111.711 32.24 110.879 32.24ZM107.903 28.216V26.76H113.847V28.216H107.903ZM124.844 32C124.273 32.1067 123.713 32.152 123.164 32.136C122.62 32.1253 122.132 32.0267 121.7 31.84C121.268 31.648 120.94 31.3467 120.716 30.936C120.518 30.5627 120.414 30.1813 120.404 29.792C120.393 29.4027 120.388 28.9627 120.388 28.472V20.96H122.308V28.36C122.308 28.7067 122.31 29.0107 122.316 29.272C122.326 29.5333 122.382 29.7467 122.484 29.912C122.676 30.232 122.982 30.4107 123.404 30.448C123.825 30.4853 124.305 30.464 124.844 30.384V32ZM118.82 24.872V23.36H124.844V24.872H118.82ZM132.677 32V27.84C132.677 27.568 132.659 27.2667 132.621 26.936C132.584 26.6053 132.496 26.288 132.357 25.984C132.224 25.6747 132.021 25.4213 131.749 25.224C131.483 25.0267 131.12 24.928 130.661 24.928C130.416 24.928 130.173 24.968 129.933 25.048C129.693 25.128 129.475 25.2667 129.277 25.464C129.085 25.656 128.931 25.9227 128.813 26.264C128.696 26.6 128.637 27.032 128.637 27.56L127.493 27.072C127.493 26.336 127.635 25.6693 127.917 25.072C128.205 24.4747 128.627 24 129.181 23.648C129.736 23.2907 130.419 23.112 131.229 23.112C131.869 23.112 132.397 23.2187 132.813 23.432C133.229 23.6453 133.56 23.9173 133.805 24.248C134.051 24.5787 134.232 24.9307 134.349 25.304C134.467 25.6773 134.541 26.032 134.573 26.368C134.611 26.6987 134.629 26.968 134.629 27.176V32H132.677ZM126.685 32V20.48H128.405V26.544H128.637V32H126.685ZM140.645 32.24C139.77 32.24 139.002 32.0507 138.341 31.672C137.68 31.2933 137.162 30.768 136.789 30.096C136.421 29.424 136.237 28.6507 136.237 27.776C136.237 26.832 136.418 26.0133 136.781 25.32C137.144 24.6213 137.648 24.08 138.293 23.696C138.938 23.312 139.685 23.12 140.533 23.12C141.429 23.12 142.189 23.3307 142.813 23.752C143.442 24.168 143.909 24.7573 144.213 25.52C144.517 26.2827 144.632 27.1813 144.557 28.216H142.645V27.512C142.64 26.5733 142.474 25.888 142.149 25.456C141.824 25.024 141.312 24.808 140.613 24.808C139.824 24.808 139.237 25.0533 138.853 25.544C138.469 26.0293 138.277 26.7413 138.277 27.68C138.277 28.5547 138.469 29.232 138.853 29.712C139.237 30.192 139.797 30.432 140.533 30.432C141.008 30.432 141.416 30.328 141.757 30.12C142.104 29.9067 142.37 29.6 142.557 29.2L144.461 29.776C144.13 30.5547 143.618 31.16 142.925 31.592C142.237 32.024 141.477 32.24 140.645 32.24ZM137.669 28.216V26.76H143.613V28.216H137.669ZM151.977 32L148.609 20.48H150.633L152.929 28.8L155.217 20.496L157.241 20.48L159.537 28.8L161.825 20.48H163.849L160.489 32H158.585L156.225 23.808L153.881 32H151.977ZM168.017 32.24C167.153 32.24 166.399 32.0453 165.753 31.656C165.108 31.2667 164.607 30.7307 164.249 30.048C163.897 29.36 163.721 28.5707 163.721 27.68C163.721 26.7733 163.903 25.9787 164.265 25.296C164.628 24.6133 165.132 24.08 165.777 23.696C166.423 23.312 167.169 23.12 168.017 23.12C168.887 23.12 169.644 23.3147 170.289 23.704C170.935 24.0933 171.436 24.632 171.793 25.32C172.151 26.0027 172.329 26.7893 172.329 27.68C172.329 28.576 172.148 29.368 171.785 30.056C171.428 30.7387 170.927 31.2747 170.281 31.664C169.636 32.048 168.881 32.24 168.017 32.24ZM168.017 30.432C168.785 30.432 169.356 30.176 169.729 29.664C170.103 29.152 170.289 28.4907 170.289 27.68C170.289 26.8427 170.1 26.176 169.721 25.68C169.343 25.1787 168.775 24.928 168.017 24.928C167.5 24.928 167.073 25.0453 166.737 25.28C166.407 25.5093 166.161 25.832 166.001 26.248C165.841 26.6587 165.761 27.136 165.761 27.68C165.761 28.5173 165.951 29.1867 166.329 29.688C166.713 30.184 167.276 30.432 168.017 30.432ZM174.092 32V23.36H175.796V25.464L175.588 25.192C175.695 24.904 175.836 24.6427 176.012 24.408C176.193 24.168 176.409 23.9707 176.66 23.816C176.873 23.672 177.108 23.56 177.364 23.48C177.625 23.3947 177.892 23.344 178.164 23.328C178.436 23.3067 178.7 23.3173 178.956 23.36V25.16C178.7 25.0853 178.404 25.0613 178.068 25.088C177.737 25.1147 177.439 25.208 177.172 25.368C176.905 25.512 176.687 25.696 176.516 25.92C176.351 26.144 176.228 26.4 176.148 26.688C176.068 26.9707 176.028 27.2773 176.028 27.608V32H174.092ZM180.643 32V20.24H182.571V32H180.643ZM188.431 32.24C187.636 32.24 186.943 32.04 186.351 31.64C185.759 31.24 185.3 30.696 184.975 30.008C184.65 29.32 184.487 28.544 184.487 27.68C184.487 26.8053 184.65 26.0267 184.975 25.344C185.306 24.656 185.772 24.1147 186.375 23.72C186.978 23.32 187.687 23.12 188.503 23.12C189.324 23.12 190.012 23.32 190.567 23.72C191.127 24.1147 191.551 24.656 191.839 25.344C192.127 26.032 192.271 26.8107 192.271 27.68C192.271 28.5387 192.127 29.3147 191.839 30.008C191.551 30.696 191.122 31.24 190.551 31.64C189.98 32.04 189.274 32.24 188.431 32.24ZM188.727 30.512C189.244 30.512 189.66 30.3947 189.975 30.16C190.295 29.92 190.527 29.5867 190.671 29.16C190.82 28.7333 190.895 28.24 190.895 27.68C190.895 27.1147 190.82 26.6213 190.671 26.2C190.527 25.7733 190.3 25.4427 189.991 25.208C189.682 24.968 189.282 24.848 188.791 24.848C188.274 24.848 187.847 24.976 187.511 25.232C187.175 25.4827 186.927 25.824 186.767 26.256C186.607 26.6827 186.527 27.1573 186.527 27.68C186.527 28.208 186.604 28.688 186.759 29.12C186.919 29.5467 187.162 29.8853 187.487 30.136C187.812 30.3867 188.226 30.512 188.727 30.512ZM190.895 32V25.936H190.655V20.48H192.599V32H190.895Z" fill="white"/>
<defs>
<clipPath id="clip0_227_32">
<rect width="24" height="24" fill="white" transform="translate(23 14)"/>
</clipPath>
</defs>
</svg>
