<svg width="66" height="66" viewBox="0 0 66 66" fill="none" xmlns="http://www.w3.org/2000/svg">
<path d="M35.7416 26.2799C34.3765 27.068 33.2035 28.0983 32.2551 29.3418C31.9412 29.7535 32.0205 30.3418 32.4321 30.6557C32.8439 30.9698 33.432 30.8902 33.7461 30.4788C34.5432 29.4335 35.53 28.5671 36.6791 27.9037C41.4246 25.1639 47.5143 26.7956 50.254 31.541C52.9938 36.2864 51.3621 42.3761 46.6166 45.1159C41.8712 47.8557 35.7815 46.2239 33.0418 41.4785C32.3793 40.3312 31.9581 39.0893 31.79 37.7878C31.7237 37.2742 31.2536 36.9117 30.7401 36.9781C30.227 37.0445 29.8641 37.5145 29.9304 38.0279C30.1305 39.5766 30.631 41.0529 31.418 42.416C34.6747 48.0569 41.9133 49.9964 47.5541 46.7397C53.195 43.483 55.1346 36.2444 51.8778 30.6035C48.6211 24.9627 41.3825 23.0231 35.7416 26.2799Z" fill="#8E8E8E"/>
<path d="M45.4916 43.1674C49.1626 41.0479 50.4248 36.337 48.3054 32.666C46.1859 28.995 41.4751 27.7328 37.8041 29.8522C34.1331 31.9717 32.8708 36.6825 34.9902 40.3535C37.1097 44.0245 41.8206 45.2868 45.4916 43.1674ZM38.7416 31.476C41.5172 29.8735 45.0791 30.828 46.6816 33.6035C48.284 36.3791 47.3297 39.941 44.5541 41.5436C41.7784 43.1461 38.2165 42.1917 36.614 39.416C35.0115 36.6404 35.9659 33.0785 38.7416 31.476Z" fill="#8E8E8E"/>
<path d="M45.124 15.6666L42.6542 17.0925L37.0497 13.9319C36.7609 13.769 36.4075 13.7708 36.1205 13.9366L24.8621 20.4366C24.5749 20.6024 24.3968 20.9075 24.3934 21.239L24.3284 27.6729L19.6885 30.3518L19.126 29.3775C18.1954 27.7658 16.1273 27.2116 14.5156 28.1422C12.9039 29.0727 12.3498 31.1408 13.2803 32.7525L13.8428 33.7268L11.79 34.912C9.51951 36.2228 8.73882 39.1364 10.0497 41.407L21.6075 61.4256C22.9184 63.6962 25.832 64.4769 28.1025 63.166L61.4364 43.9207C63.7069 42.6099 64.4875 39.6962 63.1766 37.4257L51.6189 17.407C50.308 15.1364 47.3944 14.3558 45.124 15.6666ZM26.2629 21.7929L36.5946 15.8279L40.768 18.1815L26.2144 26.584L26.2629 21.7929ZM14.9041 31.815C14.4906 31.0987 14.7369 30.1795 15.4531 29.766C16.1694 29.3524 17.0886 29.5987 17.5022 30.315L18.0647 31.2893L15.4666 32.7893L14.9041 31.815ZM61.5529 38.3631C62.3469 39.7383 61.8741 41.5029 60.499 42.2969L27.165 61.5422C25.7899 62.3362 24.0252 61.8633 23.2313 60.4881L11.6735 40.4695C10.8796 39.0943 11.3524 37.3297 12.7275 36.5358L46.0614 17.2904C47.4365 16.4965 49.2011 16.9693 49.9951 18.3445L61.5528 38.3632L61.5529 38.3631Z" fill="#8E8E8E"/>
<path d="M40.7338 34.9266C41.6068 34.4225 42.727 34.7228 43.231 35.5957C43.4899 36.0441 44.0633 36.1978 44.5117 35.9389C44.9601 35.68 45.1137 35.1066 44.8548 34.6582C43.8339 32.8899 41.5646 32.2818 39.7963 33.3028C39.3479 33.5617 39.1943 34.1351 39.4531 34.5834C39.712 35.0318 40.2854 35.1855 40.7338 34.9266Z" fill="#8E8E8E"/>
<path d="M29.2581 15.0506C29.7065 14.7917 29.8601 14.2182 29.6012 13.7699L27.0994 9.43657C26.8405 8.98824 26.2671 8.83453 25.8187 9.09342C25.3703 9.35231 25.2167 9.92566 25.4756 10.3741L27.9774 14.7074C28.2363 15.1558 28.8097 15.3095 29.2581 15.0506Z" fill="#8E8E8E"/>
<path d="M33.1216 12.82C33.3294 12.7001 33.4914 12.5007 33.5584 12.2508L34.8175 7.55194C34.9515 7.05184 34.6546 6.53775 34.1544 6.40371C33.6544 6.2698 33.1403 6.56661 33.0062 7.06662L31.7473 11.7655C31.6133 12.2656 31.9101 12.7797 32.4103 12.9138C32.6603 12.9807 32.9138 12.94 33.1216 12.82Z" fill="#8E8E8E"/>
<path d="M24.6835 17.3748C24.9336 17.4418 25.1872 17.4011 25.3949 17.2812C25.6027 17.1612 25.7647 16.9619 25.8317 16.7119C25.9657 16.2118 25.669 15.6977 25.1689 15.5636L20.47 14.3046C19.97 14.1707 19.4559 14.4675 19.3218 14.9675C19.1878 15.4676 19.4846 15.9817 19.9847 16.1158L24.6835 17.3748Z" fill="#8E8E8E"/>
<path d="M22.7208 37.4781L18.4989 39.9156C18.0505 40.1745 17.8969 40.7479 18.1558 41.1963C18.4147 41.6447 18.988 41.7983 19.4364 41.5394L23.6583 39.1019C24.1067 38.843 24.2603 38.2697 24.0014 37.8213C23.7425 37.3728 23.1692 37.2192 22.7208 37.4781Z" fill="#8E8E8E"/>
<path d="M31.6112 34.5099C31.8247 34.3867 31.9841 34.1788 32.0479 33.9406C32.1117 33.7024 32.0781 33.4435 31.9544 33.2293C31.8311 33.0158 31.6233 32.8564 31.3851 32.7926C31.1469 32.7289 30.8872 32.7629 30.6737 32.8861C30.4602 33.0094 30.3009 33.2172 30.237 33.4554C30.1724 33.6941 30.2073 33.9533 30.3306 34.1668C30.4538 34.3803 30.6608 34.5401 30.8999 34.6035C31.1381 34.6673 31.3969 34.6337 31.6112 34.5099Z" fill="#8E8E8E"/>
</svg>
