<svg width="151" height="46" viewBox="0 0 151 46" fill="none" xmlns="http://www.w3.org/2000/svg">
<rect width="151" height="46" rx="23" fill="#FF5533" fill-opacity="0.1"/>
<path d="M51.3695 27V16.92H52.8325V25.621H57.3965V27H51.3695ZM61.868 27.21C61.112 27.21 60.4563 27.0397 59.901 26.699C59.3456 26.3583 58.9163 25.8893 58.613 25.292C58.3143 24.69 58.165 23.997 58.165 23.213C58.165 22.4243 58.319 21.7313 58.627 21.134C58.935 20.532 59.3666 20.0653 59.922 19.734C60.4773 19.398 61.126 19.23 61.868 19.23C62.624 19.23 63.2796 19.4003 63.835 19.741C64.3903 20.0817 64.8196 20.5507 65.123 21.148C65.4263 21.7453 65.578 22.4337 65.578 23.213C65.578 24.0017 65.424 24.697 65.116 25.299C64.8126 25.8963 64.3833 26.3653 63.828 26.706C63.2726 27.042 62.6193 27.21 61.868 27.21ZM61.868 25.831C62.5913 25.831 63.1303 25.5883 63.485 25.103C63.8443 24.613 64.024 23.983 64.024 23.213C64.024 22.4243 63.842 21.7943 63.478 21.323C63.1186 20.847 62.582 20.609 61.868 20.609C61.378 20.609 60.9743 20.721 60.657 20.945C60.3396 21.1643 60.104 21.47 59.95 21.862C59.796 22.2493 59.719 22.6997 59.719 23.213C59.719 24.0063 59.901 24.641 60.265 25.117C60.629 25.593 61.1633 25.831 61.868 25.831ZM70.2312 30.57C69.8252 30.57 69.4309 30.507 69.0482 30.381C68.6702 30.255 68.3249 30.0683 68.0122 29.821C67.6996 29.5783 67.4406 29.2773 67.2352 28.918L68.5862 28.232C68.7496 28.554 68.9829 28.7897 69.2862 28.939C69.5896 29.0883 69.9092 29.163 70.2452 29.163C70.6606 29.163 71.0152 29.0883 71.3092 28.939C71.6032 28.7943 71.8249 28.575 71.9742 28.281C72.1282 27.987 72.2029 27.623 72.1982 27.189V25.075H72.3732V19.44H73.6682V27.203C73.6682 27.4037 73.6612 27.595 73.6472 27.777C73.6332 27.959 73.6076 28.141 73.5702 28.323C73.4629 28.8317 73.2576 29.2517 72.9542 29.583C72.6556 29.9143 72.2729 30.1617 71.8062 30.325C71.3442 30.4883 70.8192 30.57 70.2312 30.57ZM70.1192 27.21C69.4146 27.21 68.8056 27.035 68.2922 26.685C67.7836 26.335 67.3892 25.859 67.1092 25.257C66.8339 24.6503 66.6962 23.969 66.6962 23.213C66.6962 22.4523 66.8362 21.7733 67.1162 21.176C67.3962 20.574 67.7929 20.1003 68.3062 19.755C68.8242 19.405 69.4379 19.23 70.1472 19.23C70.8612 19.23 71.4609 19.405 71.9462 19.755C72.4362 20.1003 72.8049 20.574 73.0522 21.176C73.3042 21.778 73.4302 22.457 73.4302 23.213C73.4302 23.969 73.3042 24.648 73.0522 25.25C72.8002 25.852 72.4292 26.3303 71.9392 26.685C71.4492 27.035 70.8426 27.21 70.1192 27.21ZM70.3222 25.887C70.8029 25.887 71.1949 25.7727 71.4982 25.544C71.8016 25.3153 72.0232 25.0003 72.1632 24.599C72.3032 24.1977 72.3732 23.7357 72.3732 23.213C72.3732 22.6903 72.3009 22.2283 72.1562 21.827C72.0162 21.4257 71.7969 21.113 71.4982 20.889C71.2042 20.665 70.8286 20.553 70.3712 20.553C69.8859 20.553 69.4869 20.672 69.1742 20.91C68.8616 21.148 68.6282 21.4677 68.4742 21.869C68.3249 22.2703 68.2502 22.7183 68.2502 23.213C68.2502 23.7123 68.3249 24.165 68.4742 24.571C68.6282 24.9723 68.8569 25.292 69.1602 25.53C69.4682 25.768 69.8556 25.887 70.3222 25.887ZM75.7738 18.201V16.78H77.2368V18.201H75.7738ZM75.7738 27V19.44H77.2368V27H75.7738ZM84.6449 27V23.283C84.6449 22.989 84.6192 22.688 84.5679 22.38C84.5212 22.0673 84.4279 21.778 84.2879 21.512C84.1526 21.246 83.9589 21.0313 83.7069 20.868C83.4596 20.7047 83.1352 20.623 82.7339 20.623C82.4726 20.623 82.2252 20.6673 81.9919 20.756C81.7586 20.84 81.5532 20.9777 81.3759 21.169C81.2032 21.3603 81.0656 21.6123 80.9629 21.925C80.8649 22.2377 80.8159 22.618 80.8159 23.066L79.9059 22.723C79.9059 22.037 80.0342 21.4327 80.2909 20.91C80.5476 20.3827 80.9162 19.972 81.3969 19.678C81.8776 19.384 82.4586 19.237 83.1399 19.237C83.6626 19.237 84.1012 19.321 84.4559 19.489C84.8106 19.657 85.0976 19.8787 85.3169 20.154C85.5409 20.4247 85.7112 20.721 85.8279 21.043C85.9446 21.365 86.0239 21.68 86.0659 21.988C86.1079 22.296 86.1289 22.5667 86.1289 22.8V27H84.6449ZM79.3319 27V19.44H80.6409V21.624H80.8159V27H79.3319ZM90.5002 16.92H91.9772L89.2892 27H87.8122L90.5002 16.92ZM97.4577 27.21C96.7344 27.21 96.0811 27.0863 95.4977 26.839C94.9191 26.587 94.4407 26.23 94.0627 25.768C93.6894 25.3013 93.4467 24.7483 93.3347 24.109L94.8607 23.878C95.0147 24.494 95.3367 24.9747 95.8267 25.32C96.3167 25.6607 96.8884 25.831 97.5417 25.831C97.9477 25.831 98.3211 25.768 98.6617 25.642C99.0024 25.5113 99.2754 25.327 99.4807 25.089C99.6907 24.8463 99.7957 24.557 99.7957 24.221C99.7957 24.039 99.7631 23.878 99.6977 23.738C99.6371 23.598 99.5507 23.4767 99.4387 23.374C99.3314 23.2667 99.1984 23.1757 99.0397 23.101C98.8857 23.0217 98.7154 22.954 98.5287 22.898L95.9457 22.135C95.6937 22.0603 95.4371 21.9647 95.1757 21.848C94.9144 21.7267 94.6741 21.5703 94.4547 21.379C94.2401 21.183 94.0651 20.9427 93.9297 20.658C93.7944 20.3687 93.7267 20.0187 93.7267 19.608C93.7267 18.9873 93.8854 18.4623 94.2027 18.033C94.5247 17.599 94.9587 17.2723 95.5047 17.053C96.0507 16.829 96.6621 16.717 97.3387 16.717C98.0201 16.7263 98.6291 16.8477 99.1657 17.081C99.7071 17.3143 100.155 17.6503 100.51 18.089C100.869 18.523 101.116 19.0503 101.252 19.671L99.6837 19.937C99.6137 19.559 99.4644 19.2347 99.2357 18.964C99.0071 18.6887 98.7271 18.4787 98.3957 18.334C98.0644 18.1847 97.7051 18.1077 97.3177 18.103C96.9444 18.0937 96.6014 18.1497 96.2887 18.271C95.9807 18.3923 95.7334 18.5627 95.5467 18.782C95.3647 19.0013 95.2737 19.2533 95.2737 19.538C95.2737 19.818 95.3554 20.0443 95.5187 20.217C95.6821 20.3897 95.8827 20.5273 96.1207 20.63C96.3634 20.728 96.6037 20.8097 96.8417 20.875L98.7037 21.4C98.9371 21.4653 99.2007 21.554 99.4947 21.666C99.7934 21.7733 100.08 21.925 100.356 22.121C100.636 22.317 100.867 22.5783 101.049 22.905C101.231 23.227 101.322 23.633 101.322 24.123C101.322 24.6317 101.219 25.0797 101.014 25.467C100.808 25.8497 100.526 26.1717 100.167 26.433C99.8121 26.6897 99.4014 26.8833 98.9347 27.014C98.4681 27.1447 97.9757 27.21 97.4577 27.21ZM102.953 18.201V16.78H104.416V18.201H102.953ZM102.953 27V19.44H104.416V27H102.953ZM109.634 30.57C109.228 30.57 108.833 30.507 108.451 30.381C108.073 30.255 107.727 30.0683 107.415 29.821C107.102 29.5783 106.843 29.2773 106.638 28.918L107.989 28.232C108.152 28.554 108.385 28.7897 108.689 28.939C108.992 29.0883 109.312 29.163 109.648 29.163C110.063 29.163 110.418 29.0883 110.712 28.939C111.006 28.7943 111.227 28.575 111.377 28.281C111.531 27.987 111.605 27.623 111.601 27.189V25.075H111.776V19.44H113.071V27.203C113.071 27.4037 113.064 27.595 113.05 27.777C113.036 27.959 113.01 28.141 112.973 28.323C112.865 28.8317 112.66 29.2517 112.357 29.583C112.058 29.9143 111.675 30.1617 111.209 30.325C110.747 30.4883 110.222 30.57 109.634 30.57ZM109.522 27.21C108.817 27.21 108.208 27.035 107.695 26.685C107.186 26.335 106.792 25.859 106.512 25.257C106.236 24.6503 106.099 23.969 106.099 23.213C106.099 22.4523 106.239 21.7733 106.519 21.176C106.799 20.574 107.195 20.1003 107.709 19.755C108.227 19.405 108.84 19.23 109.55 19.23C110.264 19.23 110.863 19.405 111.349 19.755C111.839 20.1003 112.207 20.574 112.455 21.176C112.707 21.778 112.833 22.457 112.833 23.213C112.833 23.969 112.707 24.648 112.455 25.25C112.203 25.852 111.832 26.3303 111.342 26.685C110.852 27.035 110.245 27.21 109.522 27.21ZM109.725 25.887C110.205 25.887 110.597 25.7727 110.901 25.544C111.204 25.3153 111.426 25.0003 111.566 24.599C111.706 24.1977 111.776 23.7357 111.776 23.213C111.776 22.6903 111.703 22.2283 111.559 21.827C111.419 21.4257 111.199 21.113 110.901 20.889C110.607 20.665 110.231 20.553 109.774 20.553C109.288 20.553 108.889 20.672 108.577 20.91C108.264 21.148 108.031 21.4677 107.877 21.869C107.727 22.2703 107.653 22.7183 107.653 23.213C107.653 23.7123 107.727 24.165 107.877 24.571C108.031 24.9723 108.259 25.292 108.563 25.53C108.871 25.768 109.258 25.887 109.725 25.887ZM120.342 27V23.283C120.342 22.989 120.316 22.688 120.265 22.38C120.218 22.0673 120.125 21.778 119.985 21.512C119.85 21.246 119.656 21.0313 119.404 20.868C119.157 20.7047 118.832 20.623 118.431 20.623C118.17 20.623 117.922 20.6673 117.689 20.756C117.456 20.84 117.25 20.9777 117.073 21.169C116.9 21.3603 116.763 21.6123 116.66 21.925C116.562 22.2377 116.513 22.618 116.513 23.066L115.603 22.723C115.603 22.037 115.731 21.4327 115.988 20.91C116.245 20.3827 116.613 19.972 117.094 19.678C117.575 19.384 118.156 19.237 118.837 19.237C119.36 19.237 119.798 19.321 120.153 19.489C120.508 19.657 120.795 19.8787 121.014 20.154C121.238 20.4247 121.408 20.721 121.525 21.043C121.642 21.365 121.721 21.68 121.763 21.988C121.805 22.296 121.826 22.5667 121.826 22.8V27H120.342ZM115.029 27V19.44H116.338V21.624H116.513V27H115.029ZM126.498 27.203C125.976 27.203 125.537 27.119 125.182 26.951C124.828 26.783 124.538 26.5637 124.314 26.293C124.095 26.0177 123.927 25.719 123.81 25.397C123.694 25.075 123.614 24.76 123.572 24.452C123.53 24.144 123.509 23.8733 123.509 23.64V19.44H124.993V23.157C124.993 23.451 125.017 23.7543 125.063 24.067C125.115 24.375 125.208 24.662 125.343 24.928C125.483 25.194 125.677 25.4087 125.924 25.572C126.176 25.7353 126.503 25.817 126.904 25.817C127.166 25.817 127.413 25.775 127.646 25.691C127.88 25.6023 128.083 25.4623 128.255 25.271C128.433 25.0797 128.57 24.8277 128.668 24.515C128.771 24.2023 128.822 23.822 128.822 23.374L129.732 23.717C129.732 24.403 129.604 25.0097 129.347 25.537C129.091 26.0597 128.722 26.468 128.241 26.762C127.761 27.056 127.18 27.203 126.498 27.203ZM128.997 27V24.816H128.822V19.44H130.299V27H128.997ZM135.812 27.21C135.088 27.21 134.482 27.035 133.992 26.685C133.502 26.3303 133.131 25.852 132.879 25.25C132.627 24.648 132.501 23.969 132.501 23.213C132.501 22.457 132.624 21.778 132.872 21.176C133.124 20.574 133.492 20.1003 133.978 19.755C134.468 19.405 135.07 19.23 135.784 19.23C136.493 19.23 137.104 19.405 137.618 19.755C138.136 20.1003 138.535 20.574 138.815 21.176C139.095 21.7733 139.235 22.4523 139.235 23.213C139.235 23.969 139.095 24.6503 138.815 25.257C138.539 25.859 138.145 26.335 137.632 26.685C137.123 27.035 136.516 27.21 135.812 27.21ZM132.256 30.36V19.44H133.558V24.879H133.726V30.36H132.256ZM135.609 25.887C136.075 25.887 136.46 25.768 136.764 25.53C137.072 25.292 137.3 24.9723 137.45 24.571C137.604 24.165 137.681 23.7123 137.681 23.213C137.681 22.7183 137.604 22.2703 137.45 21.869C137.3 21.4677 137.069 21.148 136.757 20.91C136.444 20.672 136.045 20.553 135.56 20.553C135.102 20.553 134.724 20.665 134.426 20.889C134.132 21.113 133.912 21.4257 133.768 21.827C133.628 22.2283 133.558 22.6903 133.558 23.213C133.558 23.7357 133.628 24.1977 133.768 24.599C133.908 25.0003 134.129 25.3153 134.433 25.544C134.736 25.7727 135.128 25.887 135.609 25.887Z" fill="#1E1E1E"/>
<g clip-path="url(#clip0_39_2431)">
<rect x="7.0249" y="5.00021" width="36" height="36" rx="18" fill="#FF5533" fill-opacity="0.1"/>
<g clip-path="url(#clip1_39_2431)">
<path d="M24.8539 22.7811C26.4421 22.7811 27.8173 22.2114 28.9412 21.0875C30.0647 19.9638 30.6345 18.5889 30.6345 17.0004C30.6345 15.4126 30.0649 14.0374 28.941 12.9133C27.8171 11.7898 26.442 11.2202 24.8539 11.2202C23.2654 11.2202 21.8905 11.7898 20.7668 12.9135C19.6431 14.0372 19.0732 15.4124 19.0732 17.0004C19.0732 18.5889 19.6431 19.964 20.7668 21.0877C21.8909 22.2112 23.266 22.7811 24.8539 22.7811ZM21.7614 13.908C22.6237 13.0457 23.6351 12.6266 24.8539 12.6266C26.0724 12.6266 27.0841 13.0457 27.9465 13.908C28.8088 14.7704 29.2281 15.7821 29.2281 17.0004C29.2281 18.2192 28.8088 19.2307 27.9465 20.0931C27.0841 20.9555 26.0724 21.3746 24.8539 21.3746C23.6355 21.3746 22.624 20.9553 21.7614 20.0931C20.899 19.2308 20.4797 18.2192 20.4797 17.0004C20.4797 15.7821 20.899 14.7704 21.7614 13.908Z" fill="#FF5533"/>
<path d="M34.9684 29.675C34.936 29.2073 34.8705 28.6972 34.774 28.1585C34.6766 27.6158 34.5511 27.1027 34.401 26.6338C34.2457 26.1491 34.035 25.6705 33.774 25.2118C33.5036 24.7357 33.1857 24.3212 32.829 23.98C32.4561 23.6232 31.9994 23.3362 31.4713 23.127C30.9451 22.9188 30.3619 22.8133 29.738 22.8133C29.493 22.8133 29.2561 22.9138 28.7985 23.2117C28.5169 23.3954 28.1875 23.6078 27.8198 23.8427C27.5054 24.043 27.0795 24.2307 26.5535 24.4006C26.0402 24.5667 25.5191 24.6509 25.0046 24.6509C24.4904 24.6509 23.9693 24.5667 23.4557 24.4006C22.9302 24.2309 22.5041 24.0432 22.1902 23.8429C21.826 23.6102 21.4965 23.3978 21.2106 23.2115C20.7534 22.9136 20.5165 22.8131 20.2715 22.8131C19.6475 22.8131 19.0645 22.9188 18.5384 23.1271C18.0107 23.3361 17.5538 23.623 17.1805 23.9802C16.8238 24.3215 16.5059 24.7359 16.2357 25.2118C15.9751 25.6705 15.7642 26.1489 15.6089 26.634C15.4589 27.1029 15.3335 27.6158 15.2361 28.1585C15.1394 28.6965 15.074 29.2068 15.0416 29.6755C15.0098 30.1338 14.9937 30.6108 14.9937 31.0928C14.9937 32.3456 15.3919 33.3598 16.1772 34.1078C16.9529 34.8459 17.979 35.2201 19.2272 35.2201H30.7834C32.0312 35.2201 33.0574 34.8459 33.8332 34.1078C34.6187 33.3603 35.017 32.3457 35.017 31.0926C35.0168 30.609 35.0005 30.132 34.9684 29.675ZM32.8635 33.0888C32.351 33.5766 31.6705 33.8137 30.7832 33.8137H19.2272C18.3397 33.8137 17.6593 33.5766 17.147 33.089C16.6443 32.6105 16.4001 31.9574 16.4001 31.0928C16.4001 30.6431 16.4149 30.199 16.4446 29.7728C16.4735 29.3545 16.5327 28.8951 16.6204 28.407C16.707 27.9249 16.8172 27.4724 16.9483 27.0628C17.0741 26.67 17.2457 26.2811 17.4584 25.9065C17.6615 25.5494 17.8951 25.2431 18.153 24.9963C18.3941 24.7654 18.6981 24.5764 19.0562 24.4347C19.3875 24.3036 19.7597 24.2318 20.1638 24.221C20.2131 24.2472 20.3008 24.2972 20.4429 24.3898C20.732 24.5782 21.0652 24.7932 21.4337 25.0285C21.8489 25.2933 22.384 25.5324 23.0232 25.7388C23.6767 25.9501 24.3432 26.0574 25.0048 26.0574C25.6663 26.0574 26.333 25.9501 26.9861 25.7389C27.6259 25.5322 28.1608 25.2933 28.5766 25.0281C28.9536 24.7872 29.2775 24.5784 29.5667 24.3898C29.7087 24.2974 29.7964 24.2472 29.8457 24.221C30.25 24.2318 30.6223 24.3036 30.9537 24.4347C31.3116 24.5764 31.6156 24.7656 31.8568 24.9963C32.1146 25.2429 32.3482 25.5493 32.5513 25.9067C32.7642 26.2811 32.936 26.6702 33.0616 27.0626C33.1929 27.4728 33.3033 27.925 33.3897 28.4068C33.4772 28.8959 33.5366 29.3555 33.5655 29.7729V29.7733C33.5953 30.1979 33.6104 30.6418 33.6105 31.0928C33.6104 31.9576 33.3661 32.6105 32.8635 33.0888Z" fill="#FF5533"/>
</g>
</g>
<defs>
<clipPath id="clip0_39_2431">
<rect width="36" height="36" fill="white" transform="translate(7.0249 5)"/>
</clipPath>
<clipPath id="clip1_39_2431">
<rect width="24" height="24" fill="white" transform="translate(13.0249 11.2202)"/>
</clipPath>
</defs>
</svg>
