<svg width="122" height="42" viewBox="0 0 122 42" fill="none" xmlns="http://www.w3.org/2000/svg">
<rect x="0.629883" y="0.5" width="120" height="41" rx="20.5" fill="#FFEEEB"/>
<rect x="0.629883" y="0.5" width="120" height="41" rx="20.5" stroke="#FFEEEB"/>
<g clip-path="url(#clip0_413_9165)">
<path d="M27.1558 12.4552V12.9774C27.8805 12.9283 28.2685 12.9871 28.3088 12.9937C28.5421 13.0318 28.7413 13.1825 28.8416 13.3964L29.86 15.5669C29.9833 15.5956 30.1006 15.6564 30.1977 15.7511C30.3206 15.8708 30.4676 15.9646 30.6342 16.0052C30.9669 16.0864 31.2971 15.9939 31.5303 15.767C31.7711 15.533 32.1384 15.4735 32.4222 15.653C32.828 15.9093 32.8716 16.4524 32.5533 16.7706C32.1044 17.2198 31.5073 17.4672 30.8721 17.4672C30.8312 17.4672 30.7906 17.4661 30.7499 17.464L32.119 20.3822C32.1769 20.5052 32.2316 20.6292 32.2836 20.7537C33.8252 20.2676 35.5786 20.6287 36.8038 21.8399C37.0777 22.1105 37.1081 22.5525 36.8521 22.8404C36.7091 23.0012 36.5124 23.0815 36.3158 23.0815C36.1325 23.0815 35.949 23.0116 35.8093 22.8717C34.9789 22.0415 33.7867 21.789 32.7357 22.1129C33.1343 23.7023 33.1078 25.3425 32.6963 26.8806C32.8901 26.9447 33.0873 27.0018 33.2876 27.0516C33.5201 27.1093 33.7631 27.1099 33.9958 27.0524C37.5787 26.1661 40.1301 22.944 40.1301 19.2111V12.4552C40.1301 12.1207 39.9235 11.8207 39.6104 11.703C38.6237 11.3322 36.7166 10.8281 33.6432 10.8281C30.5696 10.8281 28.6624 11.3324 27.6754 11.7032C27.3623 11.8207 27.1558 12.1207 27.1558 12.4552ZM35.0764 15.7575C35.3561 15.4777 35.8097 15.4777 36.0897 15.7575C36.268 15.9358 36.5051 16.0342 36.7574 16.0342C37.0098 16.0342 37.2471 15.9358 37.4254 15.7575C37.7052 15.4775 38.1589 15.4775 38.4387 15.7575C38.7185 16.0373 38.7185 16.4908 38.4387 16.7706C37.9896 17.2198 37.3926 17.4672 36.7574 17.4672C36.1224 17.4672 35.5253 17.2198 35.0762 16.7706C34.7966 16.4908 34.7966 16.0373 35.0764 15.7575Z" fill="#FF5533"/>
<path d="M30.8217 20.9908L27.9368 14.8421C27.8041 14.5591 27.51 14.3886 27.1982 14.4122C26.1565 14.4909 24.2026 14.8365 21.3883 16.1568C18.6056 17.4624 17.0932 18.7289 16.3573 19.4837C16.1238 19.7232 16.0641 20.0824 16.2062 20.3853L19.0756 26.5016C20.6611 29.8809 24.3399 31.7144 27.9601 30.9948C28.1941 30.9483 28.4131 30.8455 28.5984 30.6952C31.4658 28.3712 32.4072 24.3704 30.8217 20.9908ZM25.0242 20.5325C25.4697 19.2995 26.8353 18.6586 28.0683 19.1043C28.4404 19.2387 28.633 19.6494 28.4986 20.0216C28.3642 20.3937 27.9535 20.5865 27.5812 20.4519C27.0914 20.2751 26.5489 20.5296 26.3718 21.0194C26.2664 21.3113 25.9913 21.4927 25.698 21.4927C25.6171 21.4927 25.5349 21.479 25.4545 21.4499C25.0824 21.3153 24.8896 20.9046 25.0242 20.5325ZM22.2532 22.9517C22.0159 22.866 21.7594 22.8777 21.5309 22.985C21.3026 23.0921 21.1295 23.2818 21.0438 23.5191C20.9384 23.811 20.6632 23.9925 20.3698 23.9925C20.2891 23.9925 20.2069 23.9785 20.1265 23.9496C19.7542 23.8152 19.5616 23.4045 19.696 23.0323C19.9119 22.435 20.3473 21.9574 20.9223 21.6877C21.4974 21.418 22.1428 21.3882 22.7401 21.604C23.1124 21.7384 23.305 22.1491 23.1706 22.5214C23.036 22.8935 22.6253 23.0861 22.2532 22.9517ZM24.6591 27.6352C24.1528 27.6352 23.6384 27.5491 23.1355 27.3673C22.7632 27.2329 22.5706 26.8222 22.705 26.4499C22.8396 26.0779 23.2501 25.885 23.6223 26.0196C25.2111 26.5937 26.9708 25.768 27.5448 24.1794C27.6792 23.8072 28.0899 23.6145 28.4622 23.7489C28.8342 23.8835 29.0269 24.2942 28.8925 24.6665C28.2316 26.4951 26.5002 27.6352 24.6591 27.6352Z" fill="#FF5533"/>
</g>
<path d="M54.1187 27.24C52.972 27.24 51.9987 26.9867 51.1987 26.48C50.3987 25.9733 49.788 25.2693 49.3667 24.368C48.9507 23.4667 48.7427 22.424 48.7427 21.24C48.7427 20.056 48.9507 19.0133 49.3667 18.112C49.788 17.2107 50.3987 16.5067 51.1987 16C51.9987 15.4933 52.972 15.24 54.1187 15.24C55.452 15.24 56.548 15.5787 57.4067 16.256C58.2707 16.9333 58.8654 17.8453 59.1907 18.992L57.7427 19.376C57.508 18.5173 57.0894 17.84 56.4867 17.344C55.884 16.848 55.0947 16.6 54.1187 16.6C53.26 16.6 52.5454 16.7947 51.9747 17.184C51.404 17.5733 50.9747 18.1173 50.6867 18.816C50.3987 19.5093 50.252 20.3173 50.2467 21.24C50.2414 22.1573 50.3827 22.9653 50.6707 23.664C50.9587 24.3573 51.3907 24.9013 51.9667 25.296C52.5427 25.6853 53.26 25.88 54.1187 25.88C55.0947 25.88 55.884 25.632 56.4867 25.136C57.0894 24.6347 57.508 23.9573 57.7427 23.104L59.1907 23.488C58.8654 24.6293 58.2707 25.5413 57.4067 26.224C56.548 26.9013 55.452 27.24 54.1187 27.24ZM64.2252 27.224C63.6705 27.224 63.1932 27.136 62.7932 26.96C62.3985 26.784 62.0705 26.5493 61.8092 26.256C61.5479 25.9627 61.3425 25.6373 61.1932 25.28C61.0439 24.9227 60.9372 24.5573 60.8732 24.184C60.8145 23.8107 60.7852 23.4613 60.7852 23.136V18.36H62.2252V22.688C62.2252 23.0933 62.2625 23.4853 62.3372 23.864C62.4119 24.2427 62.5372 24.584 62.7132 24.888C62.8945 25.192 63.1345 25.432 63.4332 25.608C63.7372 25.784 64.1159 25.872 64.5692 25.872C64.9265 25.872 65.2519 25.8107 65.5452 25.688C65.8385 25.5653 66.0892 25.384 66.2972 25.144C66.5052 24.8987 66.6652 24.5893 66.7772 24.216C66.8892 23.8427 66.9452 23.408 66.9452 22.912L67.8812 23.2C67.8812 24.032 67.7292 24.7493 67.4252 25.352C67.1265 25.9547 66.7025 26.4187 66.1532 26.744C65.6092 27.064 64.9665 27.224 64.2252 27.224ZM67.1052 27V24.688H66.9452V18.36H68.3772V27H67.1052ZM70.7771 27V15.24H72.2011V27H70.7771ZM79.4254 27C78.9134 27.1013 78.4068 27.1413 77.9054 27.12C77.4094 27.104 76.9668 27.0053 76.5774 26.824C76.1881 26.6373 75.8921 26.3493 75.6894 25.96C75.5188 25.6187 75.4254 25.2747 75.4094 24.928C75.3988 24.576 75.3934 24.1787 75.3934 23.736V15.96H76.8174V23.672C76.8174 24.024 76.8201 24.3253 76.8254 24.576C76.8361 24.8267 76.8921 25.0427 76.9934 25.224C77.1854 25.5653 77.4894 25.7653 77.9054 25.824C78.3268 25.8827 78.8334 25.8667 79.4254 25.776V27ZM73.6414 19.536V18.36H79.4254V19.536H73.6414ZM84.4596 27.224C83.9049 27.224 83.4276 27.136 83.0276 26.96C82.6329 26.784 82.3049 26.5493 82.0436 26.256C81.7822 25.9627 81.5769 25.6373 81.4276 25.28C81.2782 24.9227 81.1716 24.5573 81.1076 24.184C81.0489 23.8107 81.0196 23.4613 81.0196 23.136V18.36H82.4596V22.688C82.4596 23.0933 82.4969 23.4853 82.5716 23.864C82.6462 24.2427 82.7716 24.584 82.9476 24.888C83.1289 25.192 83.3689 25.432 83.6676 25.608C83.9716 25.784 84.3502 25.872 84.8036 25.872C85.1609 25.872 85.4862 25.8107 85.7796 25.688C86.0729 25.5653 86.3236 25.384 86.5316 25.144C86.7396 24.8987 86.8996 24.5893 87.0116 24.216C87.1236 23.8427 87.1796 23.408 87.1796 22.912L88.1156 23.2C88.1156 24.032 87.9636 24.7493 87.6596 25.352C87.3609 25.9547 86.9369 26.4187 86.3876 26.744C85.8436 27.064 85.2009 27.224 84.4596 27.224ZM87.3396 27V24.688H87.1796V18.36H88.6116V27H87.3396ZM90.8514 27V18.36H92.1234V20.448L91.9154 20.176C92.0168 19.9093 92.1474 19.664 92.3074 19.44C92.4728 19.216 92.6568 19.032 92.8594 18.888C93.0834 18.7067 93.3368 18.568 93.6194 18.472C93.9021 18.376 94.1901 18.32 94.4834 18.304C94.7768 18.2827 95.0514 18.3013 95.3074 18.36V19.696C95.0088 19.616 94.6808 19.5947 94.3234 19.632C93.9661 19.6693 93.6354 19.8 93.3314 20.024C93.0541 20.2213 92.8381 20.4613 92.6834 20.744C92.5341 21.0267 92.4301 21.3333 92.3714 21.664C92.3128 21.9893 92.2834 22.3227 92.2834 22.664V27H90.8514ZM100.408 27.24C99.5599 27.24 98.8186 27.0533 98.1839 26.68C97.5546 26.3013 97.0639 25.776 96.7119 25.104C96.3599 24.4267 96.1839 23.6373 96.1839 22.736C96.1839 21.792 96.3573 20.976 96.7039 20.288C97.0506 19.5947 97.5333 19.0613 98.1519 18.688C98.7759 18.3093 99.5066 18.12 100.344 18.12C101.213 18.12 101.952 18.32 102.56 18.72C103.173 19.12 103.632 19.6907 103.936 20.432C104.245 21.1733 104.379 22.056 104.336 23.08H102.896V22.568C102.88 21.5067 102.664 20.7147 102.248 20.192C101.832 19.664 101.213 19.4 100.392 19.4C99.5119 19.4 98.8426 19.6827 98.3839 20.248C97.9253 20.8133 97.6959 21.624 97.6959 22.68C97.6959 23.6987 97.9253 24.488 98.3839 25.048C98.8426 25.608 99.4959 25.888 100.344 25.888C100.915 25.888 101.411 25.7573 101.832 25.496C102.253 25.2347 102.584 24.8587 102.824 24.368L104.192 24.84C103.856 25.6027 103.349 26.1947 102.672 26.616C102 27.032 101.245 27.24 100.408 27.24ZM97.2159 23.08V21.936H103.6V23.08H97.2159Z" fill="#FF5533"/>
<defs>
<clipPath id="clip0_413_9165">
<rect width="24" height="24" fill="white" transform="translate(16.1299 9)"/>
</clipPath>
</defs>
</svg>
