<svg width="48" height="30" viewBox="0 0 48 30" fill="none" xmlns="http://www.w3.org/2000/svg">
<path d="M40.0204 29.8385H22.2813C21.7635 29.8385 21.3438 29.4188 21.3438 28.901C21.3438 28.3832 21.7635 27.9635 22.2813 27.9635H40.0204C43.3865 27.9635 46.125 25.2249 46.125 21.8588C46.125 19.0245 44.1196 16.5196 41.3566 15.9028C41.1052 15.8467 40.8881 15.6897 40.756 15.4688C40.624 15.2478 40.5886 14.9822 40.6583 14.7343C40.9081 13.8455 41.0348 12.9226 41.0348 11.9914C41.0348 6.41325 36.4966 1.87509 30.9184 1.87509C25.7225 1.87509 21.3974 5.76609 20.8578 10.9259C20.8209 11.2778 20.5892 11.579 20.2585 11.7047C19.9279 11.8304 19.5546 11.7593 19.2933 11.5207C17.9632 10.3064 16.0452 10.0039 14.4068 10.7501C12.6338 11.5576 11.5896 13.4003 11.8083 15.3356C11.8462 15.6707 11.7011 16.0003 11.4286 16.1988C11.156 16.3973 10.7978 16.4341 10.4905 16.2952C9.69703 15.9364 8.85225 15.7545 7.97972 15.7545C4.61353 15.7543 1.875 18.4928 1.875 21.8588C1.875 25.2248 4.61353 27.9635 7.97962 27.9635H14.7814C15.2992 27.9635 15.7189 28.3832 15.7189 28.901C15.7189 29.4188 15.2992 29.8385 14.7814 29.8385H7.97962C3.57966 29.8385 0 26.2589 0 21.8588C0 17.4588 3.57966 13.8792 7.97962 13.8792C8.64853 13.8792 9.30497 13.9611 9.94284 14.1233C10.1852 11.9313 11.5559 9.98803 13.6298 9.0435C15.4578 8.21091 17.5316 8.29912 19.2512 9.21366C19.8067 6.873 21.0598 4.74291 22.8683 3.10387C25.0767 1.10231 27.9356 0 30.9185 0C37.5305 0 42.9098 5.37928 42.9098 11.9913C42.9098 12.7815 42.8328 13.5668 42.6801 14.3363C44.0573 14.8248 45.2913 15.6916 46.2202 16.8363C47.3678 18.2505 48 20.0343 48 21.8588C48 26.2589 44.4203 29.8385 40.0204 29.8385Z" fill="#8E8E8E"/>
<path d="M30.9493 5.625C30.9478 5.625 30.9465 5.625 30.9451 5.625H30.9185C30.4007 5.625 29.981 5.20528 29.981 4.6875C29.981 4.16972 30.4007 3.75 30.9185 3.75H30.9534C31.4712 3.75234 31.8891 4.17394 31.8868 4.69163C31.8845 5.208 31.4651 5.625 30.9493 5.625Z" fill="#8E8E8E"/>
<path d="M38.222 12.9288C37.7042 12.9288 37.2845 12.5091 37.2845 11.9913C37.2845 9.72703 36.0658 7.61447 34.104 6.47794C33.6559 6.21844 33.5031 5.64478 33.7627 5.19675C34.0222 4.74872 34.5959 4.596 35.0439 4.8555C37.5825 6.32616 39.1596 9.06037 39.1596 11.9912C39.1595 12.5091 38.7398 12.9288 38.222 12.9288Z" fill="#8E8E8E"/>
<path d="M18.5317 29.8386C18.2842 29.8386 18.0433 29.7383 17.8689 29.5639C17.6936 29.3895 17.5942 29.1476 17.5942 28.9011C17.5942 28.6545 17.6936 28.4126 17.8689 28.2382C18.0433 28.0639 18.2852 27.9636 18.5317 27.9636C18.7783 27.9636 19.0202 28.0639 19.1946 28.2382C19.3689 28.4126 19.4692 28.6545 19.4692 28.9011C19.4692 29.1476 19.3689 29.3895 19.1946 29.5639C19.0202 29.7383 18.7783 29.8386 18.5317 29.8386Z" fill="#8E8E8E"/>
</svg>
