<svg width="46" height="46" viewBox="0 0 46 46" fill="none" xmlns="http://www.w3.org/2000/svg">
<rect x="0.5" y="0.5" width="45" height="45" rx="22.5" fill="#FF5533"/>
<rect x="0.5" y="0.5" width="45" height="45" rx="22.5" stroke="#E4E6E8"/>
<path d="M25.5068 14.1933C25.367 14.0534 25.1888 13.9582 24.9949 13.9196C24.8009 13.881 24.5999 13.9008 24.4171 13.9765C24.2344 14.0522 24.0782 14.1803 23.9684 14.3448C23.8585 14.5092 23.7998 14.7025 23.7998 14.9003V18.4003C20.9275 18.4301 18.1828 19.5911 16.161 21.6316C14.1392 23.672 13.0034 26.4273 13 29.2997V31.0995C13.0001 31.3142 13.0692 31.5231 13.1972 31.6954C13.3251 31.8677 13.505 31.9943 13.7104 32.0565C13.8043 32.0852 13.9019 32.0997 14 32.0995C14.1646 32.0995 14.3267 32.0588 14.4718 31.9812C14.6169 31.9035 14.7407 31.7912 14.832 31.6542C18.6518 25.9247 22.3149 25.5156 23.7998 25.6347V29.2997C23.7998 29.4975 23.8584 29.6908 23.9683 29.8552C24.0782 30.0197 24.2344 30.1478 24.4171 30.2235C24.5998 30.2992 24.8008 30.319 24.9948 30.2804C25.1888 30.2418 25.3669 30.1465 25.5068 30.0067L32.707 22.8065C32.7998 22.7137 32.8735 22.6034 32.9238 22.4821C32.9741 22.3608 32.9999 22.2308 32.9999 22.0995C32.9999 21.9682 32.9741 21.8381 32.9238 21.7168C32.8735 21.5955 32.7998 21.4853 32.707 21.3924L25.5068 14.1933Z" fill="white"/>
</svg>
